<?xml version="1.0" encoding="utf-8"?>
<!-- Generator: Adobe Illustrator 16.0.0, SVG Export Plug-In . SVG Version: 6.00 Build 0)  -->
<!DOCTYPE svg PUBLIC "-//W3C//DTD SVG 1.1//EN" "http://www.w3.org/Graphics/SVG/1.1/DTD/svg11.dtd">
<svg version="1.1" id="Capa_1" xmlns="http://www.w3.org/2000/svg" xmlns:xlink="http://www.w3.org/1999/xlink" x="0px" y="0px"
	 width="595.279px" height="595.244px" viewBox="0 0 595.279 595.244" enable-background="new 0 0 595.279 595.244"
	 xml:space="preserve">
<path id="alimentació_1_" fill="#5CB130" d="M266.515,343.914l8.048,11.242l-8.166,8.994l-2.604-2.365l6.272-6.982l-6.391-8.994
	L266.515,343.914z M254.089,371.015l6.391,8.994l-6.272,6.982l2.604,2.367l8.166-8.994l-8.048-11.244L254.089,371.015z
	 M247.935,345.925l6.391,8.994l-6.272,6.982l2.604,2.367l8.166-8.994l-8.048-11.242L247.935,345.925z M295.036,345.925l6.391,8.994
	l-6.272,6.982l2.604,2.367l8.166-8.994l-8.047-11.242L295.036,345.925z M269.71,371.015l6.391,8.994l-6.272,6.982l2.604,2.367
	l8.165-8.994l-8.047-11.244L269.71,371.015z M238.349,371.015l6.391,8.994l-6.272,6.982l2.604,2.367l8.166-8.994l-8.048-11.244
	L238.349,371.015z M186.395,394.093l-2.84,2.012l6.391,8.994l-6.272,6.982l2.604,2.367l8.166-8.996L186.395,394.093z
	 M279.415,345.925l6.391,8.994l-6.272,6.982l2.604,2.367l8.166-8.994l-8.048-11.242L279.415,345.925z M232.195,345.925l6.391,8.994
	l-6.272,6.982l2.604,2.367l8.166-8.994l-8.047-11.242L232.195,345.925z M191.247,371.015l6.391,8.994l-6.272,6.982l2.604,2.367
	l8.166-8.994l-8.048-11.244L191.247,371.015z M222.609,371.015l6.391,8.994l-6.272,6.982l2.604,2.367l8.166-8.994l-8.047-11.244
	L222.609,371.015z M301.191,371.015l6.391,8.994l-6.272,6.982l2.604,2.367l8.166-8.994l-8.048-11.244L301.191,371.015z
	 M185.093,345.925l6.391,8.994l-6.272,6.982l2.604,2.367l8.166-8.994l-8.047-11.242L185.093,345.925z M216.573,345.925l6.391,8.994
	l-6.272,6.982l2.604,2.367l8.166-8.994l-8.048-11.242L216.573,345.925z M206.988,371.015l6.391,8.994l-6.272,6.982l2.604,2.367
	l8.166-8.994l-8.048-11.244L206.988,371.015z M200.833,345.925l6.391,8.994l-6.272,6.982l2.604,2.367l8.166-8.994l-8.048-11.242
	L200.833,345.925z M285.45,371.015l6.391,8.994l-6.272,6.982l2.604,2.367l8.166-8.994l-8.048-11.244L285.45,371.015z
	 M407.701,364.269l8.166-8.994l-8.048-11.242l-2.84,2.012l6.391,8.994l-6.272,6.982L407.701,364.269z M310.777,345.925l6.391,8.994
	l-6.272,6.982l2.604,2.367l8.166-8.994l-8.048-11.242L310.777,345.925z M389.358,345.925l6.391,8.994l-6.271,6.982l2.604,2.367
	l8.166-8.994l-8.048-11.242L389.358,345.925z M379.654,371.015l6.391,8.994l-6.272,6.982l2.604,2.367l8.166-8.994l-8.047-11.244
	L379.654,371.015z M395.394,371.015l6.391,8.994l-6.272,6.982l2.604,2.367l8.166-8.994l-8.048-11.244L395.394,371.015z
	 M275.036,196.81c3.313-6.391,7.219-12.781,11.479-18.817c3.195,3.905,6.153,7.929,8.757,12.071
	c-1.183,2.249-2.248,4.497-3.313,6.746h12.427c-12.427-27.22-43.67-56.451-67.694-54.913c-29.468,1.894-11.479,24.971,4.024,54.913
	H275.036z M172.312,343.914l-2.84,2.012l6.391,8.994l-6.272,6.982l2.604,2.367l8.166-8.994L172.312,343.914z M178.347,369.003
	l-2.84,2.012l6.391,8.994l-6.272,6.982l2.604,2.367l8.166-8.994L178.347,369.003z M373.618,345.925l6.391,8.994l-6.272,6.982
	l2.604,2.367l8.166-8.994l-8.048-11.242L373.618,345.925z M326.516,345.925l6.391,8.994l-6.271,6.982l2.604,2.367l8.166-8.994
	l-8.048-11.242L326.516,345.925z M364.031,371.015l6.392,8.994l-6.272,6.982l2.604,2.367l8.166-8.994l-8.048-11.244L364.031,371.015
	z M332.552,371.015l6.391,8.994l-6.272,6.982l2.604,2.367l8.166-8.994l-8.048-11.244L332.552,371.015z M316.93,371.015l6.391,8.994
	l-6.271,6.982l2.604,2.367l8.166-8.994l-8.048-11.244L316.93,371.015z M357.878,345.925l6.391,8.994l-6.272,6.982l2.604,2.367
	l8.166-8.994l-8.048-11.242L357.878,345.925z M342.138,345.925l6.391,8.994l-6.272,6.982l2.604,2.367l8.166-8.994l-8.047-11.242
	L342.138,345.925z M348.292,371.015l6.391,8.994l-6.272,6.982l2.604,2.367l8.166-8.994l-8.048-11.244L348.292,371.015z
	 M189.946,421.193l6.391,8.994l-6.272,6.982l2.604,2.367l8.166-8.994l-8.048-11.242L189.946,421.193z M378.352,421.193l6.391,8.994
	l-6.272,6.982l2.604,2.367l8.166-8.994l-8.047-11.242L378.352,421.193z M327.699,394.093l-2.84,2.012l6.391,8.994l-6.272,6.982
	l2.604,2.367l8.166-8.996L327.699,394.093z M374.92,394.093l-2.841,2.012l6.391,8.994l-6.272,6.982l2.604,2.367l8.166-8.996
	L374.92,394.093z M362.73,421.193l6.392,8.994l-6.272,6.982l2.604,2.367l8.166-8.994l-8.048-11.242L362.73,421.193z M331.25,421.193
	l6.391,8.994l-6.272,6.982l2.604,2.367l8.166-8.994L334.09,419.3L331.25,421.193z M343.44,394.093l-2.84,2.012l6.391,8.994
	l-6.272,6.982l2.604,2.367l8.166-8.996L343.44,394.093z M346.99,421.193l6.391,8.994l-6.272,6.982l2.604,2.367l8.166-8.994
	L349.83,419.3L346.99,421.193z M359.18,394.093l-2.841,2.012l6.391,8.994l-6.271,6.982l2.604,2.367l8.166-8.996L359.18,394.093z
	 M420.72,345.925l6.391,8.994l-6.272,6.982l2.604,2.367l8.166-8.994l-8.048-11.242L420.72,345.925z M443.205,323.322H155.862
	c-2.959,0-5.325,2.367-5.325,5.326c0,2.957,2.366,5.324,5.325,5.324h287.344c2.959,0,5.326-2.367,5.326-5.324
	C448.531,325.689,446.164,323.322,443.205,323.322z M595.28,297.641c0,164.382-133.257,297.64-297.64,297.64S0,462.023,0,297.641
	C0,133.258,133.257,0,297.64,0S595.28,133.258,595.28,297.641z M481.668,196.81H352.079c16.213-36.451,26.982-61.303,0.236-65.682
	c-20-3.313-49.705,26.273-49.705,26.273c2.84,3.195,5.563,6.272,7.929,9.349c9.941-11.716,21.539-20,31.599-19.172
	c21.421,1.657,8.876,22.249-2.367,49.114h-13.965c-22.367-42.013-69.705-84.026-106.629-81.659
	c-45.445,2.958-21.895,36.687,2.248,81.659H113.731c-12.9,0-22.367,12.071-19.291,24.498l22.013,95.268
	c0.947,3.906,3.313,7.338,6.627,9.586l4.024,2.723l52.427,130.182c4.379,12.543,16.214,21.064,29.587,21.064h167.577
	c12.9,0,24.616-7.93,29.231-20l60.476-132.074l5.562-4.023c3.077-2.248,5.326-5.443,6.272-8.994l22.604-93.257
	C504.154,209.236,494.686,196.81,481.668,196.81z M390.541,394.093l-2.84,2.012l6.391,8.994l-6.272,6.982l2.604,2.367l8.166-8.996
	L390.541,394.093z M411.134,371.015l6.391,8.994l-6.272,6.982l2.604,2.367l8.166-8.994l-8.048-11.244L411.134,371.015z
	 M394.092,421.193l6.391,8.994l-6.272,6.982l2.604,2.367l8.166-8.994l-8.048-11.242L394.092,421.193z M403.442,396.105l6.391,8.994
	l-6.272,6.982l2.604,2.367l8.166-8.996l-8.048-11.242L403.442,396.105z M233.496,394.093l-2.84,2.012l6.391,8.994l-6.272,6.982
	l2.604,2.367l8.166-8.996L233.496,394.093z M237.047,421.193l6.391,8.994l-6.272,6.982l2.604,2.367l8.166-8.994l-8.048-11.242
	L237.047,421.193z M315.628,421.193l6.391,8.994l-6.272,6.982l2.604,2.367l8.165-8.994l-8.047-11.242L315.628,421.193z
	 M249.237,394.093l-2.84,2.012l6.391,8.994l-6.272,6.982l2.604,2.367l8.166-8.996L249.237,394.093z M217.875,394.093l-2.841,2.012
	l6.391,8.994l-6.272,6.982l2.604,2.367l8.166-8.996L217.875,394.093z M205.685,421.193l6.392,8.994l-6.272,6.982l2.604,2.367
	l8.166-8.994l-8.048-11.242L205.685,421.193z M252.787,421.193l6.391,8.994l-6.272,6.982l2.604,2.367l8.166-8.994l-8.048-11.242
	L252.787,421.193z M221.307,421.193l6.391,8.994l-6.272,6.982l2.604,2.367l8.166-8.994l-8.047-11.242L221.307,421.193z
	 M202.135,394.093l-2.841,2.012l6.391,8.994l-6.271,6.982l2.604,2.367l8.166-8.996L202.135,394.093z M299.889,421.193l6.391,8.994
	l-6.272,6.982l2.604,2.367l8.166-8.994l-8.048-11.242L299.889,421.193z M264.977,394.093l-2.841,2.012l6.391,8.994l-6.271,6.982
	l2.604,2.367l8.165-8.996L264.977,394.093z M312.078,394.093l-2.841,2.012l6.391,8.994l-6.272,6.982l2.604,2.367l8.165-8.996
	L312.078,394.093z M296.338,394.093l-2.84,2.012l6.391,8.994l-6.272,6.982l2.604,2.367l8.166-8.996L296.338,394.093z
	 M268.408,421.193l6.391,8.994l-6.272,6.982l2.604,2.367l8.166-8.994l-8.047-11.242L268.408,421.193z M284.149,421.193l6.391,8.994
	l-6.272,6.982l2.604,2.367l8.166-8.994l-8.048-11.242L284.149,421.193z M280.598,394.093l-2.84,2.012l6.391,8.994l-6.272,6.982
	l2.604,2.367l8.166-8.996L280.598,394.093z"/>
</svg>
