<?xml version="1.0" encoding="utf-8"?>
<!-- Generator: Adobe Illustrator 16.0.0, SVG Export Plug-In . SVG Version: 6.00 Build 0)  -->
<!DOCTYPE svg PUBLIC "-//W3C//DTD SVG 1.1//EN" "http://www.w3.org/Graphics/SVG/1.1/DTD/svg11.dtd">
<svg version="1.1" id="Capa_1" xmlns="http://www.w3.org/2000/svg" xmlns:xlink="http://www.w3.org/1999/xlink" x="0px" y="0px"
	 width="595.279px" height="594.52px" viewBox="0 0 595.279 594.52" enable-background="new 0 0 595.279 594.52"
	 xml:space="preserve">
<g id="alimentació_2_">
	<circle fill="#5CB130" cx="297.3" cy="297.26" r="297.301"/>
	<path fill="#FFFFFF" d="M481.666,196.571h-129.26c16.328-36.736,27.213-61.229,0-65.991c-19.729-3.401-49.663,26.533-49.663,26.533
		c2.722,3.401,5.442,6.123,8.164,9.524c10.204-11.565,21.771-19.729,31.294-19.049c21.092,1.36,8.846,22.45-2.721,48.982h-13.606
		c-22.449-42.18-69.393-83.679-106.811-81.638c-45.581,2.721-21.771,36.737,2.041,81.638h-107.49
		c-12.926,0-22.45,12.246-19.049,24.492l21.771,95.246c0.681,4.082,3.401,7.482,6.804,9.523l4.082,2.723l52.385,129.939
		c4.082,12.926,16.327,21.09,29.254,21.09h167.358c12.926,0,24.491-8.164,29.254-19.729l60.548-131.98l5.443-4.082
		c3.4-2.041,5.441-5.443,6.122-8.846l22.45-93.203C504.117,208.817,494.594,196.571,481.666,196.571z"/>
	<polygon fill="#5CB130" points="266.686,343.522 274.169,355.086 266.005,363.932 263.964,361.891 270.087,354.405 
		263.284,345.563 	"/>
	<polygon fill="#5CB130" points="253.759,370.735 260.563,379.577 253.759,386.379 256.481,389.104 264.645,380.26 256.481,368.694 
			"/>
	<polygon fill="#5CB130" points="247.637,345.563 254.44,354.405 247.637,361.891 250.358,363.932 258.522,355.086 250.358,343.522 
			"/>
	<polygon fill="#5CB130" points="294.578,345.563 301.383,354.405 295.259,361.891 297.981,363.932 305.464,355.086 
		297.981,343.522 	"/>
	<polygon fill="#5CB130" points="269.406,370.735 276.21,379.577 269.406,386.379 272.128,389.104 280.292,380.26 272.809,368.694 	
		"/>
	<polygon fill="#5CB130" points="238.113,370.735 244.915,379.577 238.113,386.379 240.833,389.104 248.997,380.26 240.833,368.694 
			"/>
	<polygon fill="#5CB130" points="186.407,393.864 183.687,395.905 189.81,404.749 183.687,411.553 186.407,414.276 194.572,404.749 
			"/>
	<polygon fill="#5CB130" points="278.931,345.563 285.735,354.405 279.612,361.891 281.653,363.932 289.817,355.086 
		282.333,343.522 	"/>
	<polygon fill="#5CB130" points="231.99,345.563 238.792,354.405 231.99,361.891 234.71,363.932 242.874,355.086 234.71,343.522 	
		"/>
	<polygon fill="#5CB130" points="191.17,370.735 197.293,379.577 191.17,386.379 193.891,389.104 202.055,380.26 193.891,368.694 	
		"/>
	<polygon fill="#5CB130" points="222.465,370.735 228.587,379.577 222.465,386.379 225.186,389.104 233.35,380.26 225.186,368.694 	
		"/>
	<polygon fill="#5CB130" points="300.701,370.735 307.505,379.577 301.383,386.379 303.423,389.104 311.587,380.26 304.103,368.694 
			"/>
	<polygon fill="#5CB130" points="185.047,345.563 191.17,354.405 185.047,361.891 187.769,363.932 195.932,355.086 187.769,343.522 
			"/>
	<polygon fill="#5CB130" points="216.342,345.563 223.145,354.405 216.342,361.891 219.063,363.932 227.227,355.086 
		219.063,343.522 	"/>
	<polygon fill="#5CB130" points="206.818,370.735 212.941,379.577 206.818,386.379 209.538,389.104 217.702,380.26 209.538,368.694 
			"/>
	<polygon fill="#5CB130" points="200.695,345.563 206.818,354.405 200.695,361.891 203.415,363.932 211.579,355.086 
		203.415,343.522 	"/>
	<polygon fill="#5CB130" points="285.054,370.735 291.858,379.577 285.735,386.379 287.776,389.104 295.94,380.26 288.455,368.694 	
		"/>
	<polygon fill="#5CB130" points="407.512,363.932 415.676,355.086 407.512,343.522 404.79,345.563 410.913,354.405 404.79,361.891 	
		"/>
	<polygon fill="#5CB130" points="310.906,345.563 317.029,354.405 310.906,361.891 313.628,363.932 321.791,355.086 
		313.628,343.522 	"/>
	<polygon fill="#5CB130" points="389.143,345.563 395.266,354.405 389.143,361.891 391.865,363.932 400.029,355.086 
		391.865,343.522 	"/>
	<polygon fill="#5CB130" points="379.618,370.735 385.741,379.577 379.618,386.379 382.341,389.104 390.504,380.26 382.341,368.694 
			"/>
	<polygon fill="#5CB130" points="395.266,370.735 401.389,379.577 395.266,386.379 397.988,389.104 406.151,380.26 397.988,368.694 
			"/>
	<path fill="#5CB130" d="M274.85,196.571c3.4-6.123,7.482-12.926,11.564-19.049c3.401,4.082,6.122,8.164,8.844,12.246
		c-1.359,2.041-2.04,4.762-3.4,6.803h12.245c-12.245-27.212-43.54-56.465-67.353-55.105c-29.254,2.041-11.564,25.172,4.082,55.105
		H274.85z"/>
	<polygon fill="#5CB130" points="172.121,343.522 169.4,345.563 175.523,354.405 169.4,361.891 172.121,363.932 180.284,355.086 	
		"/>
	<polygon fill="#5CB130" points="178.244,368.694 175.523,370.735 181.646,379.577 175.523,386.379 178.244,389.104 186.407,380.26 
			"/>
	<polygon fill="#5CB130" points="373.495,345.563 379.618,354.405 373.495,361.891 376.218,363.932 384.382,355.086 
		376.218,343.522 	"/>
	<polygon fill="#5CB130" points="326.554,345.563 332.677,354.405 326.554,361.891 329.275,363.932 337.439,355.086 
		329.275,343.522 	"/>
	<polygon fill="#5CB130" points="363.971,370.735 370.094,379.577 363.971,386.379 366.693,389.104 374.857,380.26 366.693,368.694 
			"/>
	<polygon fill="#5CB130" points="332.677,370.735 338.8,379.577 332.677,386.379 335.398,389.104 343.562,380.26 335.398,368.694 	
		"/>
	<polygon fill="#5CB130" points="317.029,370.735 323.152,379.577 317.029,386.379 319.751,389.104 327.914,380.26 319.751,368.694 
			"/>
	<polygon fill="#5CB130" points="357.848,345.563 363.971,354.405 357.848,361.891 360.57,363.932 368.734,355.086 360.57,343.522 	
		"/>
	<polygon fill="#5CB130" points="342.2,345.563 348.323,354.405 342.2,361.891 344.923,363.932 353.087,355.086 344.923,343.522 	
		"/>
	<polygon fill="#5CB130" points="348.323,370.735 354.447,379.577 348.323,386.379 351.046,389.104 359.21,380.26 351.046,368.694 	
		"/>
	<polygon fill="#5CB130" points="189.81,421.077 195.932,429.92 189.81,436.725 192.531,439.446 200.695,429.92 192.531,419.036 	
		"/>
	<polygon fill="#5CB130" points="378.259,421.077 384.382,429.92 378.259,436.725 380.979,439.446 389.143,429.92 380.979,419.036 	
		"/>
	<polygon fill="#5CB130" points="327.914,393.864 324.513,395.905 331.316,404.749 324.513,411.553 327.234,414.276 
		335.398,404.749 	"/>
	<polygon fill="#5CB130" points="374.857,393.864 371.454,395.905 378.259,404.749 372.135,411.553 374.857,414.276 383.02,404.749 
			"/>
	<polygon fill="#5CB130" points="362.611,421.077 368.734,429.92 362.611,436.725 365.331,439.446 373.495,429.92 365.331,419.036 	
		"/>
	<polygon fill="#5CB130" points="331.316,421.077 337.439,429.92 331.316,436.725 334.037,439.446 342.2,429.92 334.037,419.036 	
		"/>
	<polygon fill="#5CB130" points="343.562,393.864 340.16,395.905 346.964,404.749 340.841,411.553 342.882,414.276 351.046,404.749 
			"/>
	<polygon fill="#5CB130" points="346.964,421.077 353.087,429.92 346.964,436.725 349.685,439.446 357.848,429.92 349.685,419.036 	
		"/>
	<polygon fill="#5CB130" points="359.21,393.864 355.807,395.905 362.611,404.749 356.488,411.553 358.529,414.276 366.693,404.749 
			"/>
	<polygon fill="#5CB130" points="420.438,345.563 426.561,354.405 420.438,361.891 423.159,363.932 431.323,355.086 
		423.159,343.522 	"/>
	<path fill="#5CB130" d="M442.888,323.112H155.793c-2.721,0-5.441,2.041-5.441,5.443c0,2.721,2.041,5.439,5.441,5.439h287.096
		c2.722,0,5.442-2.041,5.442-5.439C448.331,325.833,445.61,323.112,442.888,323.112z"/>
	<polygon fill="#5CB130" points="390.504,393.864 387.782,395.905 393.906,404.749 387.782,411.553 390.504,414.276 
		398.667,404.749 	"/>
	<polygon fill="#5CB130" points="410.913,370.735 417.036,379.577 410.913,386.379 413.635,389.104 421.799,380.26 413.635,368.694 
			"/>
	<polygon fill="#5CB130" points="393.906,421.077 400.029,429.92 393.906,436.725 396.627,439.446 404.79,429.92 396.627,419.036 	
		"/>
	<polygon fill="#5CB130" points="403.43,395.905 409.553,404.749 403.43,411.553 406.151,414.276 414.315,404.749 406.151,393.864 	
		"/>
	<polygon fill="#5CB130" points="233.35,393.864 230.628,395.905 236.751,404.749 230.628,411.553 233.35,414.276 241.514,404.749 	
		"/>
	<polygon fill="#5CB130" points="236.751,421.077 243.555,429.92 236.751,436.725 239.473,439.446 247.637,429.92 239.473,419.036 	
		"/>
	<polygon fill="#5CB130" points="315.669,421.077 321.791,429.92 315.669,436.725 318.39,439.446 326.554,429.92 318.39,419.036 	
		"/>
	<polygon fill="#5CB130" points="248.997,393.864 246.276,395.905 252.399,404.749 246.276,411.553 248.997,414.276 
		257.161,404.749 	"/>
	<polygon fill="#5CB130" points="217.702,393.864 214.982,395.905 221.104,404.749 214.982,411.553 217.702,414.276 
		225.866,404.749 	"/>
	<polygon fill="#5CB130" points="205.456,421.077 211.579,429.92 205.456,436.725 208.178,439.446 216.342,429.92 208.178,419.036 	
		"/>
	<polygon fill="#5CB130" points="252.399,421.077 259.202,429.92 253.079,436.725 255.12,439.446 263.284,429.92 255.8,419.036 	"/>
	<polygon fill="#5CB130" points="221.104,421.077 227.907,429.92 221.104,436.725 223.825,439.446 231.99,429.92 223.825,419.036 	
		"/>
	<polygon fill="#5CB130" points="202.055,393.864 199.334,395.905 205.456,404.749 199.334,411.553 202.055,414.276 
		210.219,404.749 	"/>
	<polygon fill="#5CB130" points="300.021,421.077 306.144,429.92 300.021,436.725 302.742,439.446 310.906,429.92 302.742,419.036 	
		"/>
	<polygon fill="#5CB130" points="264.645,393.864 261.923,395.905 268.046,404.749 261.923,411.553 264.645,414.276 
		272.809,404.749 	"/>
	<polygon fill="#5CB130" points="311.587,393.864 308.865,395.905 315.669,404.749 308.865,411.553 311.587,414.276 
		319.751,404.749 	"/>
	<polygon fill="#5CB130" points="295.94,393.864 293.218,395.905 300.021,404.749 293.218,411.553 295.94,414.276 304.103,404.749 	
		"/>
	<polygon fill="#5CB130" points="268.046,421.077 274.85,429.92 268.727,436.725 270.768,439.446 278.931,429.92 271.448,419.036 	
		"/>
	<polygon fill="#5CB130" points="283.694,421.077 290.496,429.92 284.374,436.725 287.095,439.446 294.578,429.92 287.095,419.036 	
		"/>
	<polygon fill="#5CB130" points="280.292,393.864 277.571,395.905 283.694,404.749 277.571,411.553 280.292,414.276 
		288.455,404.749 	"/>
</g>
</svg>
