<?xml version="1.0" encoding="utf-8"?>
<!-- Generator: Adobe Illustrator 21.1.0, SVG Export Plug-In . SVG Version: 6.00 Build 0)  -->
<svg version="1.1" id="Capa_1" xmlns="http://www.w3.org/2000/svg" xmlns:xlink="http://www.w3.org/1999/xlink" x="0px" y="0px"
	 viewBox="0 0 503 503" style="enable-background:new 0 0 503 503;" xml:space="preserve">
<style type="text/css">
	.st0{fill:#AF241C;}
</style>
<path id="alimentació" class="st0" d="M225.2,290.6l6.8,9.5l-6.9,7.6l-2.2-2l5.3-5.9l-5.4-7.6L225.2,290.6z M214.7,313.5l5.4,7.6
	l-5.3,5.9l2.2,2l6.9-7.6l-6.8-9.5L214.7,313.5z M209.5,292.3l5.4,7.6l-5.3,5.9l2.2,2l6.9-7.6l-6.8-9.5L209.5,292.3z M249.3,292.3
	l5.4,7.6l-5.3,5.9l2.2,2l6.9-7.6l-6.8-9.5L249.3,292.3z M227.9,313.5l5.4,7.6L228,327l2.2,2l6.9-7.6l-6.8-9.5L227.9,313.5z
	 M201.4,313.5l5.4,7.6l-5.3,5.9l2.2,2l6.9-7.6l-6.8-9.5L201.4,313.5z M157.5,333l-2.4,1.7l5.4,7.6l-5.3,5.9l2.2,2l6.9-7.6L157.5,333
	z M236.1,292.3l5.4,7.6l-5.3,5.9l2.2,2l6.9-7.6l-6.8-9.5L236.1,292.3z M196.2,292.3l5.4,7.6l-5.3,5.9l2.2,2l6.9-7.6l-6.8-9.5
	L196.2,292.3z M161.6,313.5l5.4,7.6l-5.3,5.9l2.2,2l6.9-7.6l-6.8-9.5L161.6,313.5z M188.1,313.5l5.4,7.6l-5.3,5.9l2.2,2l6.9-7.6
	l-6.8-9.5L188.1,313.5z M254.5,313.5l5.4,7.6l-5.3,5.9l2.2,2l6.9-7.6l-6.8-9.5L254.5,313.5z M156.4,292.3l5.4,7.6l-5.3,5.9l2.2,2
	l6.9-7.6l-6.8-9.5L156.4,292.3z M183,292.3l5.4,7.6l-5.3,5.9l2.2,2l6.9-7.6l-6.8-9.5L183,292.3z M174.9,313.5l5.4,7.6L175,327l2.2,2
	l6.9-7.6l-6.8-9.5L174.9,313.5z M169.7,292.3l5.4,7.6l-5.3,5.9l2.2,2l6.9-7.6l-6.8-9.5L169.7,292.3z M241.2,313.5l5.4,7.6l-5.3,5.9
	l2.2,2l6.9-7.6l-6.8-9.5L241.2,313.5z M344.5,307.8l6.9-7.6l-6.8-9.5l-2.4,1.7l5.4,7.6l-5.3,5.9L344.5,307.8z M262.6,292.3l5.4,7.6
	l-5.3,5.9l2.2,2l6.9-7.6l-6.8-9.5L262.6,292.3z M329,292.3l5.4,7.6l-5.3,5.9l2.2,2l6.9-7.6l-6.8-9.5L329,292.3z M320.8,313.5
	l5.4,7.6l-5.3,5.9l2.2,2l6.9-7.6l-6.8-9.5L320.8,313.5z M334.1,313.5l5.4,7.6l-5.3,5.9l2.2,2l6.9-7.6l-6.8-9.5L334.1,313.5z
	 M232.4,166.3c2.8-5.4,6.1-10.8,9.7-15.9c2.7,3.3,5.2,6.7,7.4,10.2c-1,1.9-1.9,3.8-2.8,5.7h10.5c-10.5-23-36.9-47.7-57.2-46.4
	c-24.9,1.6-9.7,21.1,3.4,46.4H232.4z M145.6,290.6l-2.4,1.7l5.4,7.6l-5.3,5.9l2.2,2l6.9-7.6L145.6,290.6z M150.7,311.8l-2.4,1.7
	l5.4,7.6l-5.3,5.9l2.2,2l6.9-7.6L150.7,311.8z M315.7,292.3l5.4,7.6l-5.3,5.9l2.2,2l6.9-7.6l-6.8-9.5L315.7,292.3z M275.9,292.3
	l5.4,7.6l-5.3,5.9l2.2,2l6.9-7.6l-6.8-9.5L275.9,292.3z M307.6,313.5l5.4,7.6l-5.3,5.9l2.2,2l6.9-7.6l-6.8-9.5L307.6,313.5z
	 M281,313.5l5.4,7.6l-5.3,5.9l2.2,2l6.9-7.6l-6.8-9.5L281,313.5z M267.8,313.5l5.4,7.6l-5.3,5.9l2.2,2l6.9-7.6l-6.8-9.5L267.8,313.5
	z M302.4,292.3l5.4,7.6l-5.3,5.9l2.2,2l6.9-7.6l-6.8-9.5L302.4,292.3z M289.1,292.3l5.4,7.6l-5.3,5.9l2.2,2l6.9-7.6l-6.8-9.5
	L289.1,292.3z M294.3,313.5l5.4,7.6l-5.3,5.9l2.2,2l6.9-7.6l-6.8-9.5L294.3,313.5z M160.5,355.9l5.4,7.6l-5.3,5.9l2.2,2l6.9-7.6
	l-6.8-9.5L160.5,355.9z M319.7,355.9l5.4,7.6l-5.3,5.9l2.2,2l6.9-7.6l-6.8-9.5L319.7,355.9z M276.9,333l-2.4,1.7l5.4,7.6l-5.3,5.9
	l2.2,2l6.9-7.6L276.9,333z M316.8,333l-2.4,1.7l5.4,7.6l-5.3,5.9l2.2,2l6.9-7.6L316.8,333z M306.5,355.9l5.4,7.6l-5.3,5.9l2.2,2
	l6.9-7.6l-6.8-9.5L306.5,355.9z M279.9,355.9l5.4,7.6l-5.3,5.9l2.2,2l6.9-7.6l-6.8-9.5L279.9,355.9z M290.2,333l-2.4,1.7l5.4,7.6
	l-5.3,5.9l2.2,2l6.9-7.6L290.2,333z M293.2,355.9l5.4,7.6l-5.3,5.9l2.2,2l6.9-7.6l-6.8-9.5L293.2,355.9z M303.5,333l-2.4,1.7
	l5.4,7.6l-5.3,5.9l2.2,2l6.9-7.6L303.5,333z M355.5,292.3l5.4,7.6l-5.3,5.9l2.2,2l6.9-7.6l-6.8-9.5L355.5,292.3z M374.5,273.2H131.7
	c-2.5,0-4.5,2-4.5,4.5c0,2.5,2,4.5,4.5,4.5h242.8c2.5,0,4.5-2,4.5-4.5C379,275.2,377,273.2,374.5,273.2z M503,251.5
	C503,390.4,390.4,503,251.5,503C112.6,503,0,390.4,0,251.5S112.6,0,251.5,0C390.4,0,503,112.6,503,251.5z M407,166.3H297.5
	c13.7-30.8,22.8-51.8,0.2-55.5c-16.9-2.8-42,22.2-42,22.2c2.4,2.7,4.7,5.3,6.7,7.9c8.4-9.9,18.2-16.9,26.7-16.2
	c18.1,1.4,7.5,18.8-2,41.5h-11.8c-18.9-35.5-58.9-71-90.1-69c-38.4,2.5-18.5,31,1.9,69H96.1c-10.9,0-18.9,10.2-16.3,20.7l18.6,80.5
	c0.8,3.3,2.8,6.2,5.6,8.1l3.4,2.3l44.3,110c3.7,10.6,13.7,17.8,25,17.8h141.6c10.9,0,20.8-6.7,24.7-16.9l51.1-111.6l4.7-3.4
	c2.6-1.9,4.5-4.6,5.3-7.6l19.1-78.8C426,176.8,418,166.3,407,166.3z M330,333l-2.4,1.7l5.4,7.6l-5.3,5.9l2.2,2l6.9-7.6L330,333z
	 M347.4,313.5l5.4,7.6l-5.3,5.9l2.2,2l6.9-7.6l-6.8-9.5L347.4,313.5z M333,355.9l5.4,7.6l-5.3,5.9l2.2,2l6.9-7.6l-6.8-9.5L333,355.9
	z M340.9,334.7l5.4,7.6l-5.3,5.9l2.2,2l6.9-7.6l-6.8-9.5L340.9,334.7z M197.3,333l-2.4,1.7l5.4,7.6l-5.3,5.9l2.2,2l6.9-7.6
	L197.3,333z M200.3,355.9l5.4,7.6l-5.3,5.9l2.2,2l6.9-7.6l-6.8-9.5L200.3,355.9z M266.7,355.9l5.4,7.6l-5.3,5.9l2.2,2l6.9-7.6
	l-6.8-9.5L266.7,355.9z M210.6,333l-2.4,1.7l5.4,7.6l-5.3,5.9l2.2,2l6.9-7.6L210.6,333z M184.1,333l-2.4,1.7l5.4,7.6l-5.3,5.9l2.2,2
	l6.9-7.6L184.1,333z M173.8,355.9l5.4,7.6l-5.3,5.9l2.2,2l6.9-7.6l-6.8-9.5L173.8,355.9z M213.6,355.9l5.4,7.6l-5.3,5.9l2.2,2
	l6.9-7.6l-6.8-9.5L213.6,355.9z M187,355.9l5.4,7.6l-5.3,5.9l2.2,2l6.9-7.6l-6.8-9.5L187,355.9z M170.8,333l-2.4,1.7l5.4,7.6
	l-5.3,5.9l2.2,2l6.9-7.6L170.8,333z M253.4,355.9l5.4,7.6l-5.3,5.9l2.2,2l6.9-7.6l-6.8-9.5L253.4,355.9z M223.9,333l-2.4,1.7
	l5.4,7.6l-5.3,5.9l2.2,2l6.9-7.6L223.9,333z M263.7,333l-2.4,1.7l5.4,7.6l-5.3,5.9l2.2,2l6.9-7.6L263.7,333z M250.4,333l-2.4,1.7
	l5.4,7.6l-5.3,5.9l2.2,2l6.9-7.6L250.4,333z M226.8,355.9l5.4,7.6l-5.3,5.9l2.2,2l6.9-7.6l-6.8-9.5L226.8,355.9z M240.1,355.9
	l5.4,7.6l-5.3,5.9l2.2,2l6.9-7.6l-6.8-9.5L240.1,355.9z M237.1,333l-2.4,1.7l5.4,7.6l-5.3,5.9l2.2,2l6.9-7.6L237.1,333z"/>
</svg>