<?xml version="1.0" encoding="utf-8"?>
<!-- Generator: Adobe Illustrator 16.0.0, SVG Export Plug-In . SVG Version: 6.00 Build 0)  -->
<!DOCTYPE svg PUBLIC "-//W3C//DTD SVG 1.1//EN" "http://www.w3.org/Graphics/SVG/1.1/DTD/svg11.dtd">
<svg version="1.1" id="Capa_1" xmlns="http://www.w3.org/2000/svg" xmlns:xlink="http://www.w3.org/1999/xlink" x="0px" y="0px"
	 width="595.279px" height="595.162px" viewBox="0 0 595.279 595.162" enable-background="new 0 0 595.279 595.162"
	 xml:space="preserve">
<path id="comerç_al_detall_2_" fill="#283C90" d="M207.408,167.891c-0.359,5.029-0.359,6.945-0.359,6.945h-44.548l23.112-7.065
	C185.614,167.891,203.935,167.891,207.408,167.891z M416.613,174.477l-4.671,266.085l-37.961,52.811l39.398-51.014l40.835,35.926
	l-38.8-37.961L416.613,174.477z M595.28,297.581c0,164.417-133.282,297.581-297.579,297.581C133.403,595.162,0,461.998,0,297.581
	C0,133.283,133.282,0,297.58,0S595.28,133.283,595.28,297.581z M454.214,478.285L437.209,168.37c0,0-33.89-0.718-78.796-0.718
	c-1.438-25.627-9.939-76.042-56.522-66.222c1.677,2.036,4.79,6.706,6.107,11.376c33.53-4.91,38.56,34.608,40.236,54.966
	c-12.095,0-24.788,0-37.362,0c5.269-77.958-33.41-83.227-44.667-82.269c-48.738-0.12-57.36,59.875-58.917,82.269
	c-3.473,0-21.914,0-21.914,0l-23.95,7.305l-20.598,294.348l233.035,24.189L454.214,478.285z M222.737,174.956h71.251
	c0,0,0.479-0.958,0.839-6.946c-35.087,0-53.289,0-71.491,0C222.976,171.842,222.856,173.399,222.737,174.956z M265.727,101.07
	c-32.453,1.437-40.236,46.343-42.272,66.582c12.574,0,25.268,0,43.59,0c0.599-26.226,3.353-47.063,14.969-57.001
	c1.557,1.317,4.909,7.185,5.628,11.017c-7.544,8.622-9.58,27.063-10.059,45.984c5.269,0,11.017,0,17.363,0
	C296.143,146.335,295.544,99.633,265.727,101.07z M416.613,174.477l19.878-5.868c-0.719,0-61.791-0.719-125.498-0.719
	c-0.24,3.353-0.479,3.353-0.958,6.945h74.604l-10.777,318.417l11.735-318.417L416.613,174.477z"/>
</svg>
