<?xml version="1.0" encoding="utf-8"?>
<!-- Generator: Adobe Illustrator 16.0.0, SVG Export Plug-In . SVG Version: 6.00 Build 0)  -->
<!DOCTYPE svg PUBLIC "-//W3C//DTD SVG 1.1//EN" "http://www.w3.org/Graphics/SVG/1.1/DTD/svg11.dtd">
<svg version="1.1" id="Capa_1" xmlns="http://www.w3.org/2000/svg" xmlns:xlink="http://www.w3.org/1999/xlink" x="0px" y="0px"
	 width="595.279px" height="595.281px" viewBox="0 0 595.279 595.281" enable-background="new 0 0 595.279 595.281"
	 xml:space="preserve">
<g id="comerç_al_detall_2_">
	<circle fill="#5CB130" cx="295.278" cy="298.306" r="297.64"/>
	<path fill="#FFFFFF" d="M451.675,478.819l-17.223-310.042c0,0-33.762-0.689-78.545-0.689c-1.379-25.492-9.646-75.788-56.496-66.142
		c1.377,2.067,4.822,6.89,6.201,11.023c33.76-4.823,38.582,34.449,39.961,55.119c-12.402,0-24.805,0-37.205,0
		c5.512-77.855-33.072-83.367-44.785-81.989c-48.917,0-57.187,59.941-59.252,81.989c-3.445,0-22.048,0-22.048,0l-24.114,7.58
		L137.5,469.862l232.875,24.115L451.675,478.819z"/>
	<path fill="#5CB130" d="M205.02,168.778c0,4.823,0,6.89,0,6.89h-44.782l23.425-6.89
		C183.662,168.778,201.576,168.778,205.02,168.778z"/>
	<polygon fill="#5CB130" points="414.471,174.979 409.649,441.614 371.753,493.979 411.026,442.991 451.675,478.819 
		413.093,440.926 	"/>
	<path fill="#5CB130" d="M220.178,175.668h70.965c0,0,0.689-0.689,0.689-6.891c-35.139,0-53.052,0-71.654,0
		C220.867,172.222,220.867,174.289,220.178,175.668z"/>
	<path fill="#5CB130" d="M263.584,101.946c-32.382,1.378-39.961,46.162-42.027,66.831c12.401,0,25.492,0,43.405,0
		c0.689-26.181,3.445-46.851,15.158-57.186c1.378,1.378,4.822,6.89,5.512,11.024c-7.579,8.268-9.646,26.87-10.335,46.162
		c5.512,0,11.023,0,17.225,0C293.9,147.419,293.21,100.568,263.584,101.946z"/>
	<path fill="#5CB130" d="M414.471,174.979l19.98-6.201c-0.689,0-62.01-0.689-125.396-0.689c0,3.445-0.688,3.445-0.688,6.89h74.41
		l-11.025,318.31l11.713-317.62L414.471,174.979z"/>
</g>
</svg>
