<?xml version="1.0" encoding="utf-8"?>
<!-- Generator: Adobe Illustrator 16.0.0, SVG Export Plug-In . SVG Version: 6.00 Build 0)  -->
<!DOCTYPE svg PUBLIC "-//W3C//DTD SVG 1.1//EN" "http://www.w3.org/Graphics/SVG/1.1/DTD/svg11.dtd">
<svg version="1.1" id="Capa_1" xmlns="http://www.w3.org/2000/svg" xmlns:xlink="http://www.w3.org/1999/xlink" x="0px" y="0px"
	 width="595.279px" height="595.162px" viewBox="0 123.305 595.279 595.162" enable-background="new 0 123.305 595.279 595.162"
	 xml:space="preserve">
<path id="comerç_al_detall_1_" fill="#5CB130" d="M207.408,291.195c-0.359,5.029-0.359,6.945-0.359,6.945h-44.548l23.112-7.065
	C185.614,291.195,203.935,291.195,207.408,291.195z M416.613,297.782l-4.671,266.085l-37.961,52.811l39.398-51.014l40.835,35.926
	l-38.8-37.961L416.613,297.782z M595.28,420.885c0,164.417-133.282,297.581-297.579,297.581C133.403,718.466,0,585.302,0,420.885
	c0-164.298,133.282-297.581,297.58-297.581S595.28,256.587,595.28,420.885z M454.214,601.589l-17.005-309.915
	c0,0-33.89-0.718-78.796-0.718c-1.438-25.627-9.939-76.042-56.522-66.222c1.677,2.036,4.79,6.706,6.107,11.376
	c33.53-4.91,38.56,34.608,40.236,54.966c-12.095,0-24.788,0-37.362,0c5.269-77.958-33.41-83.227-44.667-82.269
	c-48.738-0.12-57.36,59.875-58.917,82.269c-3.473,0-21.914,0-21.914,0l-23.95,7.305l-20.598,294.348l233.035,24.189L454.214,601.589
	z M222.737,298.261h71.251c0,0,0.479-0.958,0.839-6.946c-35.087,0-53.289,0-71.491,0
	C222.976,295.147,222.856,296.704,222.737,298.261z M265.727,224.375c-32.453,1.437-40.236,46.343-42.272,66.582
	c12.574,0,25.268,0,43.59,0c0.599-26.226,3.353-47.063,14.969-57.001c1.557,1.317,4.909,7.185,5.628,11.017
	c-7.544,8.622-9.58,27.063-10.059,45.984c5.269,0,11.017,0,17.363,0C296.143,269.64,295.544,222.938,265.727,224.375z
	 M416.613,297.782l19.878-5.868c-0.719,0-61.791-0.719-125.498-0.719c-0.24,3.353-0.479,3.353-0.958,6.945h74.604l-10.777,318.417
	l11.735-318.417L416.613,297.782z"/>
</svg>
