<?xml version="1.0" encoding="utf-8"?>
<!-- Generator: Adobe Illustrator 21.1.0, SVG Export Plug-In . SVG Version: 6.00 Build 0)  -->
<svg version="1.1" id="Capa_1" xmlns="http://www.w3.org/2000/svg" xmlns:xlink="http://www.w3.org/1999/xlink" x="0px" y="0px"
	 viewBox="0 0 497.1 497.1" style="enable-background:new 0 0 497.1 497.1;" xml:space="preserve">
<style type="text/css">
	.st0{fill:#AF241C;}
</style>
<path id="comerç_al_detall" class="st0" d="M173.2,140.2c-0.3,4.2-0.3,5.8-0.3,5.8l-37.2,0l19.3-5.9
	C155,140.2,170.3,140.2,173.2,140.2z M347.9,145.7L344,367.9l-31.7,44.1l32.9-42.6l34.1,30l-32.4-31.7L347.9,145.7z M497.1,248.5
	c0,137.3-111.3,248.5-248.5,248.5S0,385.8,0,248.5C0,111.3,111.3,0,248.5,0S497.1,111.3,497.1,248.5z M379.3,399.4l-14.2-258.8
	c0,0-28.3-0.6-65.8-0.6c-1.2-21.4-8.3-63.5-47.2-55.3c1.4,1.7,4,5.6,5.1,9.5c28-4.1,32.2,28.9,33.6,45.9c-10.1,0-20.7,0-31.2,0
	c4.4-65.1-27.9-69.5-37.3-68.7c-40.7-0.1-47.9,50-49.2,68.7c-2.9,0-18.3,0-18.3,0l-20,6.1l-17.2,245.8l194.6,20.2L379.3,399.4z
	 M186,146.1h59.5c0,0,0.4-0.8,0.7-5.8c-29.3,0-44.5,0-59.7,0C186.2,143.5,186.1,144.8,186,146.1z M221.9,84.4
	c-27.1,1.2-33.6,38.7-35.3,55.6c10.5,0,21.1,0,36.4,0c0.5-21.9,2.8-39.3,12.5-47.6c1.3,1.1,4.1,6,4.7,9.2c-6.3,7.2-8,22.6-8.4,38.4
	c4.4,0,9.2,0,14.5,0C247.3,122.2,246.8,83.2,221.9,84.4z M347.9,145.7l16.6-4.9c-0.6,0-51.6-0.6-104.8-0.6c-0.2,2.8-0.4,2.8-0.8,5.8
	h62.3l-9,265.9l9.8-265.9L347.9,145.7z"/>
</svg>