<?xml version="1.0" encoding="utf-8"?>
<!-- Generator: Adobe Illustrator 16.0.0, SVG Export Plug-In . SVG Version: 6.00 Build 0)  -->
<!DOCTYPE svg PUBLIC "-//W3C//DTD SVG 1.1//EN" "http://www.w3.org/Graphics/SVG/1.1/DTD/svg11.dtd">
<svg version="1.1" id="Capa_1" xmlns="http://www.w3.org/2000/svg" xmlns:xlink="http://www.w3.org/1999/xlink" x="0px" y="0px"
	 width="595.279px" height="595.968px" viewBox="0 0 595.279 595.968" enable-background="new 0 0 595.279 595.968"
	 xml:space="preserve">
<g id="restauració_3_">
	<circle fill="#5CB130" cx="297.985" cy="297.984" r="297.984"/>
	<path fill="#FFFFFF" d="M158.282,217.466c-0.688,9.635-4.129,24.775-28.216,25.463v52.99h8.259V401.9
		c0,2.063-2.753,11.012-14.452,11.012s-14.452-8.258-14.452-11.012v-105.98h8.946v-52.99c-24.086-0.688-27.527-15.828-28.215-25.463
		c-0.688-9.635,0-33.721,0-39.227c0-5.506,3.439-5.505,4.817-5.505c6.192,0,6.192,4.817,6.192,4.817s-0.688,22.022,0,36.474
		c0.688,14.452,17.204,17.205,17.204,17.205s0-44.732,0-52.302c0-6.882,5.506-6.193,6.194-6.193c0.688,0,6.192-0.688,6.192,6.193
		s0,52.302,0,52.302s17.205-2.753,17.205-17.205c0.688-14.451,0-36.474,0-36.474s0-5.506,5.505-4.817c2.064,0,5.507,0,5.507,5.505
		C158.282,183.746,158.971,207.144,158.282,217.466z"/>
	<path fill="#FFFFFF" d="M302.114,435.621c-75.7,0-137.638-61.936-137.638-137.637c0-75.699,61.938-137.637,137.638-137.637
		s137.637,61.938,137.637,137.637C439.751,373.685,377.814,435.621,302.114,435.621z"/>
	<path fill="#FFFFFF" d="M506.505,183.057v112.862c0,0,0,85.334,0,113.551c0,2.754-4.129,11.697-15.141,11.697
		s-15.141-8.943-15.141-11.697c-0.688-28.217,0-113.551,0-113.551s-16.518-28.904-2.064-68.131
		c3.441-9.635,11.699-28.215,17.205-36.473c0,0,0,0,8.258-12.389C507.193,165.854,506.505,182.369,506.505,183.057z"/>
	<path fill="#5CB130" d="M302.114,214.714c-46.108,0-83.271,37.162-83.271,83.271s37.161,83.27,83.271,83.27
		s83.271-37.16,83.271-83.27C385.384,251.876,347.533,214.714,302.114,214.714z"/>
	<path fill="#FFFFFF" d="M302.114,377.126c-44.044,0-79.83-35.787-79.83-79.83c0-44.044,35.786-79.83,79.83-79.83
		c44.043,0,79.829,35.786,79.829,79.83C381.255,341.339,345.469,377.126,302.114,377.126z"/>
</g>
</svg>
