<?xml version="1.0" encoding="utf-8"?>
<!-- Generator: Adobe Illustrator 21.1.0, SVG Export Plug-In . SVG Version: 6.00 Build 0)  -->
<svg version="1.1" id="Capa_1" xmlns="http://www.w3.org/2000/svg" xmlns:xlink="http://www.w3.org/1999/xlink" x="0px" y="0px"
	 viewBox="0 0 497.7 497.7" style="enable-background:new 0 0 497.7 497.7;" xml:space="preserve">
<path id="restauració_3_" d="M248.9,0C111.4,0,0,111.4,0,248.9c0,137.4,111.4,248.9,248.9,248.9c137.4,0,248.9-111.4,248.9-248.9
	C497.7,111.4,386.3,0,248.9,0z M132.1,181.5c-0.6,7.9-3.3,20.9-23.7,21.2v44.4h7.1v88.8c-0.1,1.6-2.3,9.4-12.3,9.3
	c-9.8-0.1-12.3-7.1-12.3-9.3v-88.8h7.3v-44.4c-20.3-0.3-23-13.3-23.7-21.2c-0.7-8.2-0.2-28.2,0-32.9c0.2-4.6,2.8-4.3,4.2-4.4
	c5.3-0.2,5.1,4.3,5.1,4.3s-0.3,18.5,0,30.3s14.4,14.1,14.4,14.1s0-37.6,0-43.5c0-5.6,4.5-5.2,5.1-5.2c0.6,0,5.1-0.4,5.1,5.2
	c0,5.9,0,43.5,0,43.5s14.1-2.3,14.4-14.1c0.3-11.8,0-30.3,0-30.3s-0.2-4.4,4.5-4.3c1.6,0,4.7-0.1,4.8,4.4
	C132.2,153.3,132.8,173.3,132.1,181.5z M252.2,363.8c-63.4,0-115-51.6-115-115s51.6-115,115-115c63.4,0,115,51.6,115,115
	S315.6,363.8,252.2,363.8z M423.2,153v94.1c0,0,0,71.4,0,95.2c0,2.5-3.3,10-12.7,10c-9.4,0-12.7-7.3-12.7-10
	c-0.5-23.8,0-95.2,0-95.2s-13.9-24.2-1.8-57.1c2.9-7.9,9.5-23.3,14.3-30.6c0,0-0.2-0.1,6.7-10.3C423.8,138.7,423.2,152.7,423.2,153z
	 M252.2,179.4c-38.3,0-69.4,31.1-69.4,69.4s31.1,69.4,69.4,69.4c38.3,0,69.4-31.1,69.4-69.4S290.5,179.4,252.2,179.4z M252.2,315.3
	c-36.6,0-66.5-29.8-66.5-66.5c0-36.6,29.8-66.5,66.5-66.5c36.6,0,66.5,29.8,66.5,66.5C318.7,285.5,288.9,315.3,252.2,315.3z"/>
</svg>