<?xml version="1.0" encoding="utf-8"?>
<!-- Generator: Adobe Illustrator 16.0.0, SVG Export Plug-In . SVG Version: 6.00 Build 0)  -->
<!DOCTYPE svg PUBLIC "-//W3C//DTD SVG 1.1//EN" "http://www.w3.org/Graphics/SVG/1.1/DTD/svg11.dtd">
<svg version="1.1" id="Capa_1" xmlns="http://www.w3.org/2000/svg" xmlns:xlink="http://www.w3.org/1999/xlink" x="0px" y="0px"
	 width="595.279px" height="595.4px" viewBox="0 123.305 595.279 595.4" enable-background="new 0 123.305 595.279 595.4"
	 xml:space="preserve">
<path id="restauració_1_" fill="#5CB130" d="M297.699,123.305C133.241,123.305,0,256.546,0,421.005
	c0,164.338,133.241,297.7,297.699,297.7c164.339,0,297.7-133.24,297.7-297.7C595.28,256.546,462.038,123.305,297.699,123.305z
	 M158,340.39c-0.718,9.449-3.947,24.998-28.347,25.356v53.105h8.491v106.21c-0.119,1.914-2.751,11.244-14.711,11.123
	c-11.722-0.119-14.712-8.492-14.712-11.123v-106.21h8.731v-53.105c-24.28-0.358-27.51-15.907-28.347-25.356
	c-0.837-9.808-0.239-33.729,0-39.35c0.239-5.502,3.349-5.144,5.023-5.263c6.339-0.239,6.1,5.143,6.1,5.143s-0.358,22.127,0,36.241
	c0.359,14.113,17.224,16.864,17.224,16.864s0-44.972,0-52.029c0-6.698,5.382-6.219,6.1-6.219s6.101-0.479,6.101,6.219
	c0,7.057,0,52.029,0,52.029s16.864-2.751,17.223-16.864c0.359-14.114,0-36.241,0-36.241s-0.239-5.263,5.383-5.143
	c1.913,0,5.621-0.12,5.741,5.263C158.119,306.661,158.837,330.583,158,340.39z M301.647,558.433
	c-75.83,0-137.547-61.717-137.547-137.548c0-75.831,61.717-137.547,137.547-137.547s137.547,61.717,137.547,137.547
	C439.194,496.716,377.477,558.433,301.647,558.433z M506.173,306.303v112.549c0,0,0,85.399,0,113.864
	c0,2.99-3.946,11.961-15.189,11.961s-15.19-8.73-15.19-11.961c-0.598-28.465,0-113.864,0-113.864s-16.625-28.945-2.152-68.295
	c3.468-9.449,11.362-27.868,17.104-36.6c0,0-0.239-0.119,8.014-12.319C506.891,289.199,506.173,305.944,506.173,306.303z
	 M301.647,337.878c-45.809,0-83.007,37.198-83.007,83.007c0,45.81,37.198,83.007,83.007,83.007c45.81,0,83.007-37.197,83.007-83.007
	C384.654,375.076,347.456,337.878,301.647,337.878z M301.647,500.423c-43.775,0-79.538-35.643-79.538-79.538
	c0-43.776,35.643-79.538,79.538-79.538c43.775,0,79.538,35.643,79.538,79.538S345.542,500.423,301.647,500.423z"/>
</svg>
