<?xml version="1.0" encoding="utf-8"?>
<!-- Generator: Adobe Illustrator 21.1.0, SVG Export Plug-In . SVG Version: 6.00 Build 0)  -->
<svg version="1.1" id="Capa_1" xmlns="http://www.w3.org/2000/svg" xmlns:xlink="http://www.w3.org/1999/xlink" x="0px" y="0px"
	 viewBox="0 0 497.7 497.7" style="enable-background:new 0 0 497.7 497.7;" xml:space="preserve">
<style type="text/css">
	.st0{fill:#283C90;}
</style>
<path id="serveis_2_" class="st0" d="M251.8,351c0.7,2.3,1.1,4.4,1.3,6.4c-1.1,0.2-2.4,0.3-3.7,0.3c-16.4,0-41.3-13.7-54.5-29.9
	c-4-4.9-8.5-12.1-8.2-19.4c2.3-0.3,4.6-0.4,6.8-0.4c21.5,0,36.6,12.1,43.7,19.3C244.3,334.4,249.4,342.9,251.8,351z M277.9,205.5
	c-3.2-1-6.8-2.1-10-2.1c-1.9,0-3.6,0.4-4.9,1.1c-7.5,4.7-16.2,9.2-22.9,12.3l0,0h0c-1.2,0.6-2.4,1.1-3.5,1.6
	c-6,2.9-8.9,6.8-9.5,12.8c-0.7,6.8-2.2,12.9-3.5,18.2c-1.9,7.8-3.4,13.9-1.1,17.5c1.1,1.8,3.2,2.9,6.3,3.6c0.3,0,0.6,0.1,0.9,0.1
	c6.7,0,13.3-8.2,20.8-25.7c2.4-5.2,6.2-8.3,10.2-8.3c0.4,0,0.7,0.1,1.1,0.1c1.6,0.2,3.2,1,4.5,2.2c0,0,9.3,9.9,21.6,22
	c1.7,1.6,3.4,3.3,5.2,5c5.3,5.1,11,10.4,16.7,15.3c10.9,9.5,21.7,17.6,29.3,20.6c1.7,0.6,3.2,1,4.7,1c4.8,0,8.8-3.2,13.2-8.5
	c0.4-0.5,0.5-1.5,0.4-2.4C354.9,250.7,331.9,221.8,277.9,205.5z M497.7,248.9c0,137.4-111.4,248.9-248.9,248.9
	C111.4,497.7,0,386.3,0,248.9C0,111.4,111.4,0,248.9,0C386.3,0,497.7,111.4,497.7,248.9z M154.7,313.5c-7.4-6.7-12-18.8-12.9-33.6
	c-1.2-20.6,5.3-51.7,27.2-72.6l-86.6-53.4c-11.7,47.8-11.9,93.3,0,136.5c13.2,3.3,25.2,8.6,35.7,13.3c12.4,5.5,23.1,10.3,32.2,10.3
	C151.9,313.9,153.3,313.8,154.7,313.5z M360.3,291.4c-2.6-44.5-28.5-72.7-81.5-88.7c-3.3-1.1-7.3-2.2-10.9-2.2
	c-2.4,0-4.6,0.5-6.4,1.5c-0.1,0-0.1,0.1-0.2,0.1c-9,5.6-18.8,10.3-22.6,12.1c-0.9,0.4-1.8,0.8-2.7,1.2c-13.7-4-44.5-2.9-60.3,1
	c-13.5,24.4-20.4,45.6-21,64.5c0,0.6,0.1,2.3,0.3,2.7c1.9,4,13.4,12.5,28.9,22.8c-1.2,8.8,4,17.5,8.7,23.3
	c13.6,16.8,39.6,31,56.8,31h0c2.6,0,4.9-0.3,6.8-1c0-3-0.6-6.3-1.6-9.6c0.8,0.5,1.6,1.2,2.5,1.5c3.3,1,6.8,0.4,10.1,0.4c0,0,0,0,0,0
	c5.4,0,10.5-0.4,15.5-1.1l-25.4-23c-0.9-0.9,0.5-2.1,1.4-1.4l26.6,24.1c8.3-1.4,15.9-3.7,22.7-7l-40.9-35.1
	c-1.5-1.3,0.7-3.3,2.2-2.2l41.7,35.8c6.4-3.4,12-7.7,16.8-12.8l-36.6-31.4c-1.5-1.3,0.7-3.3,2.2-2.2L330,327
	c3.3-3.8,6.1-8.1,8.5-12.7c1.2-2.7,0.2-6.5-2.3-8.8l-4.8-4.5c2.4,1.4,4.6,2.5,6.6,3.3c2,0.8,3.9,1.2,5.8,1.2
	c6.8,0,11.8-5.1,15.5-9.6C360.3,294.6,360.4,292.8,360.3,291.4z M417,155.9L330.3,213c24,22.3,40.9,56,39.6,79
	c-0.5,8.1-3.2,14.6-7.9,19c2.3,0.6,4.4,0.9,6.6,0.9c6.1,0,11.6-2.4,19.3-5.7c7.3-3.1,16.3-7,29.1-10.2
	C425.5,253.7,427.6,198.4,417,155.9z"/>
</svg>