<?xml version="1.0" encoding="utf-8"?>
<!-- Generator: Adobe Illustrator 16.0.0, SVG Export Plug-In . SVG Version: 6.00 Build 0)  -->
<!DOCTYPE svg PUBLIC "-//W3C//DTD SVG 1.1//EN" "http://www.w3.org/Graphics/SVG/1.1/DTD/svg11.dtd">
<svg version="1.1" id="Capa_1" xmlns="http://www.w3.org/2000/svg" xmlns:xlink="http://www.w3.org/1999/xlink" x="0px" y="0px"
	 width="595.279px" height="595.924px" viewBox="0 0 595.279 595.924" enable-background="new 0 0 595.279 595.924"
	 xml:space="preserve">
<g id="serveis_2_">
	<circle fill="#5CB130" cx="297.639" cy="297.962" r="297.984"/>
	<path fill="#FFFFFF" d="M184.776,375.04c-8.947-8.26-14.452-22.711-15.141-39.916c-1.376-24.773,6.192-61.937,32.345-86.711
		L98.064,184.412c-13.764,57.119-14.452,111.486,0,163.101c15.828,4.129,30.28,10.322,42.668,15.828
		c15.14,6.881,27.527,12.387,38.538,12.387C181.336,375.727,183.399,375.727,184.776,375.04z"/>
	<path fill="#FFFFFF" d="M430.459,348.887c-3.441-52.99-34.409-86.711-97.724-105.98c-4.129-1.375-8.945-2.752-13.074-2.752
		c-2.753,0-5.507,0.688-7.57,2.064l0,0c-11.011,6.882-22.71,12.387-26.839,14.452c-1.376,0.688-2.064,0.688-3.441,1.376
		c-16.516-4.816-52.99-3.441-72.259,1.376c-15.828,28.903-24.087,54.366-24.775,77.077c0,0.688,0,2.752,0,3.44
		c2.065,4.816,15.829,15.14,34.41,27.527c-1.377,10.322,4.816,20.646,10.322,28.215c16.517,19.957,47.484,37.162,68.131,37.162l0,0
		c2.752,0,5.505-0.688,8.258-1.377c0-3.438-0.688-7.568-2.063-11.699c0.688,0.689,2.063,1.377,2.752,2.064
		c4.13,1.377,8.259,0.688,12.388,0.688l0,0c6.193,0,12.388-0.688,18.581-1.377l-30.28-27.526c-1.376-0.688,0.688-2.752,1.377-1.377
		l31.656,28.903c9.635-1.377,19.27-4.129,26.839-8.258l-48.86-41.979c-2.064-1.375,0.688-4.129,2.753-2.752l50.236,42.668
		c7.57-4.13,14.452-8.947,19.958-15.142l-44.044-37.85c-2.063-1.377,0.688-4.129,2.753-2.754l44.044,37.852
		c4.13-4.817,7.569-9.635,10.322-15.141c1.377-3.441,0-7.57-2.753-10.322l-5.505-5.506c2.753,1.377,5.505,2.752,7.569,4.129
		c2.064,0.688,4.816,1.377,6.882,1.377c8.259,0,14.452-6.193,18.581-11.699C430.459,352.329,431.146,350.264,430.459,348.887z"/>
	<path fill="#FFFFFF" d="M498.589,186.476l-103.916,68.13c28.904,26.84,48.861,66.753,47.485,94.281
		c-0.688,9.635-4.13,17.205-9.636,22.711c2.753,0.688,5.506,1.377,7.57,1.377c7.569,0,13.764-2.754,23.397-6.883
		c8.946-3.441,19.27-8.258,35.098-12.387C508.912,303.467,510.976,237.402,498.589,186.476z"/>
	<path fill="#5CB130" d="M301.08,419.77c0.688,2.754,1.376,5.506,1.376,7.57c-1.376,0-2.753,0.689-4.129,0.689
		c-19.27,0-49.55-16.519-65.378-35.787c-4.816-6.193-10.322-14.451-9.635-23.398c2.753,0,5.505-0.688,8.258-0.688
		c25.463,0,44.044,14.45,52.304,23.397C292.134,399.813,298.327,410.137,301.08,419.77z"/>
	<path fill="#5CB130" d="M332.048,245.66c-3.44-1.377-8.258-2.754-11.699-2.754c-2.063,0-4.129,0.688-6.192,1.377
		c-8.946,5.505-19.27,11.011-27.527,14.451l0,0l0,0c-1.376,0.688-2.752,1.377-4.129,2.064c-6.883,3.441-10.322,8.258-11.699,15.141
		c-0.688,8.258-2.753,15.14-4.129,22.021c-2.064,9.634-4.129,16.517-1.376,20.646c1.376,2.064,4.129,3.441,7.568,4.13
		c0.688,0,0.688,0,1.377,0c8.259,0,15.828-9.636,24.774-30.969c2.753-6.193,7.569-9.635,12.387-9.635c0.688,0,0.688,0,1.378,0
		c2.063,0,4.129,1.376,5.505,2.753c0,0,11.012,11.699,26.15,26.151c2.064,2.063,4.129,4.129,6.193,6.192
		c6.194,6.193,13.076,12.388,19.958,18.582c13.075,11.011,26.149,21.332,35.098,24.773c2.064,0.688,4.129,1.377,5.505,1.377
		c5.507,0,10.323-4.129,15.828-10.322c0.688-0.688,0.688-2.063,0.688-2.754C424.264,300.025,396.736,265.617,332.048,245.66z"/>
</g>
</svg>
