<?xml version="1.0" encoding="utf-8"?>
<!-- Generator: Adobe Illustrator 16.0.0, SVG Export Plug-In . SVG Version: 6.00 Build 0)  -->
<!DOCTYPE svg PUBLIC "-//W3C//DTD SVG 1.1//EN" "http://www.w3.org/Graphics/SVG/1.1/DTD/svg11.dtd">
<svg version="1.1" id="Capa_1" xmlns="http://www.w3.org/2000/svg" xmlns:xlink="http://www.w3.org/1999/xlink" x="0px" y="0px"
	 width="595.279px" height="595.4px" viewBox="0 123.305 595.279 595.4" enable-background="new 0 123.305 595.279 595.4"
	 xml:space="preserve">
<path id="serveis_3_" d="M301.168,543.123c0.837,2.752,1.315,5.264,1.555,7.654c-1.315,0.24-2.87,0.359-4.425,0.359
	c-19.615,0-49.397-16.387-65.186-35.762c-4.784-5.861-10.167-14.473-9.808-23.203c2.751-0.359,5.502-0.479,8.133-0.479
	c25.716,0,43.776,14.471,52.269,23.084C292.198,523.269,298.298,533.435,301.168,543.123z M332.385,369.096
	c-3.827-1.196-8.133-2.512-11.96-2.512c-2.272,0-4.306,0.479-5.861,1.316c-8.97,5.621-19.376,11.003-27.389,14.711l0,0l0,0
	c-1.436,0.718-2.871,1.315-4.187,1.914c-7.177,3.469-10.646,8.133-11.362,15.31c-0.838,8.133-2.632,15.429-4.187,21.769
	c-2.272,9.33-4.066,16.625-1.315,20.932c1.315,2.152,3.827,3.469,7.535,4.305c0.358,0,0.718,0.121,1.076,0.121
	c8.014,0,15.907-9.809,24.878-30.74c2.87-6.22,7.415-9.927,12.2-9.927c0.478,0,0.837,0.12,1.315,0.12
	c1.913,0.239,3.827,1.196,5.382,2.631c0,0,11.124,11.841,25.835,26.313c2.033,1.914,4.066,3.947,6.22,5.98
	c6.339,6.1,13.156,12.439,19.975,18.301c13.037,11.361,25.954,21.051,35.044,24.639c2.033,0.717,3.828,1.195,5.622,1.195
	c5.741,0,10.525-3.826,15.788-10.166c0.479-0.598,0.598-1.795,0.479-2.871C424.483,423.158,396.973,388.592,332.385,369.096z
	 M595.28,421.005c0,164.338-133.241,297.7-297.699,297.7C133.241,718.585,0,585.343,0,421.005
	c0-164.458,133.241-297.7,297.699-297.7C462.038,123.305,595.28,256.546,595.28,421.005z M185.031,498.271
	c-8.851-8.014-14.353-22.486-15.429-40.188c-1.436-24.639,6.339-61.837,32.533-86.835l-103.579-63.87
	c-13.994,57.172-14.233,111.593,0,163.263c15.788,3.947,30.141,10.285,42.699,15.906c14.831,6.578,27.629,12.32,38.513,12.32
	C181.682,498.75,183.357,498.628,185.031,498.271z M430.941,471.837c-3.109-53.225-34.087-86.954-97.479-106.091
	c-3.947-1.315-8.731-2.631-13.037-2.631c-2.871,0-5.502,0.598-7.655,1.794c-0.119,0-0.119,0.12-0.239,0.12
	c-10.765,6.698-22.485,12.319-27.03,14.472c-1.076,0.479-2.153,0.957-3.229,1.436c-16.386-4.785-53.225-3.469-72.123,1.196
	c-16.146,29.184-24.399,54.541-25.117,77.146c0,0.717,0.12,2.752,0.359,3.229c2.272,4.785,16.027,14.951,34.566,27.271
	c-1.436,10.525,4.784,20.932,10.405,27.867c16.267,20.094,47.364,37.078,67.937,37.078l0,0c3.109,0,5.86-0.357,8.133-1.195
	c0-3.588-0.718-7.535-1.914-11.482c0.957,0.598,1.914,1.436,2.99,1.795c3.947,1.195,8.134,0.479,12.08,0.479l0,0
	c6.459,0,12.56-0.479,18.539-1.316l-30.38-27.51c-1.076-1.076,0.599-2.512,1.675-1.674l31.815,28.824
	c9.927-1.674,19.018-4.426,27.15-8.371l-48.919-41.982c-1.794-1.555,0.837-3.947,2.632-2.631l49.875,42.818
	c7.655-4.066,14.354-9.209,20.094-15.311l-43.775-37.555c-1.794-1.557,0.837-3.947,2.631-2.633l43.776,37.438
	c3.947-4.545,7.296-9.688,10.166-15.189c1.436-3.23,0.239-7.775-2.751-10.525l-5.74-5.383c2.87,1.674,5.502,2.99,7.894,3.947
	c2.393,0.957,4.665,1.436,6.938,1.436c8.133,0,14.113-6.1,18.539-11.482C430.941,475.666,431.061,473.511,430.941,471.837z
	 M498.758,309.771l-103.699,68.295c28.706,26.672,48.919,66.98,47.364,94.49c-0.598,9.688-3.827,17.461-9.448,22.725
	c2.75,0.717,5.262,1.076,7.894,1.076c7.296,0,13.874-2.871,23.084-6.818c8.731-3.707,19.496-8.371,34.806-12.199
	C508.924,426.746,511.436,360.604,498.758,309.771z"/>
</svg>
