<?xml version="1.0" encoding="utf-8"?>
<!-- Generator: Adobe Illustrator 21.1.0, SVG Export Plug-In . SVG Version: 6.00 Build 0)  -->
<svg version="1.1" id="Capa_1" xmlns="http://www.w3.org/2000/svg" xmlns:xlink="http://www.w3.org/1999/xlink" x="0px" y="0px"
	 viewBox="0 0 443 115" style="enable-background:new 0 0 443 115;" xml:space="preserve">
<style type="text/css">
	.st0{fill:#DADAD9;}
	.st1{fill:#1E1E1C;}
	.st2{fill:#005E85;}
	.st3{fill:#FFFFFF;}
	.st4{fill:#CF0A2C;}
</style>
<g>
	<g>
		<path class="st0" d="M11.7,104.3h379.7l0.1,0c23.7,0,42.9-20,42.9-44.6s-19.2-44.6-42.9-44.6H11.7V104.3z"/>
		<g>
			<g>
				<path class="st1" d="M334.3,40.9c0.1,0,0.3,0,0.6-0.1c0.3,0,0.5-0.1,0.8-0.1c0.3,0,0.6,0,0.9-0.1c0.3,0,0.5,0,0.8,0
					c1.6,0,2.8,0.3,3.7,0.9c0.9,0.6,1.3,1.6,1.3,2.9c0,0.4-0.1,0.8-0.2,1.1c-0.1,0.3-0.3,0.7-0.5,0.9c-0.2,0.3-0.5,0.5-0.8,0.7
					c-0.3,0.2-0.6,0.3-0.9,0.4c0.4,0.1,0.8,0.2,1.2,0.3c0.4,0.2,0.7,0.4,1,0.7c0.3,0.3,0.5,0.7,0.7,1.1c0.2,0.5,0.3,1,0.3,1.6
					c0,0.7-0.1,1.4-0.4,1.9c-0.3,0.5-0.7,1-1.2,1.3c-0.5,0.4-1.1,0.6-1.8,0.8c-0.7,0.2-1.5,0.3-2.3,0.3c-0.2,0-0.5,0-0.7,0
					c-0.3,0-0.5,0-0.8,0c-0.3,0-0.5,0-0.8-0.1c-0.3,0-0.5-0.1-0.7-0.1V40.9z M337.7,47.1c1.1,0,1.9-0.2,2.4-0.7
					c0.5-0.5,0.8-1.1,0.8-1.9c0-0.7-0.3-1.3-0.8-1.8c-0.5-0.5-1.4-0.7-2.5-0.7c-0.4,0-0.7,0-1,0c-0.3,0-0.6,0.1-0.8,0.1v5.1H337.7z
					 M335.7,54.3c0.2,0,0.4,0.1,0.8,0.1c0.3,0,0.7,0,1,0c0.5,0,1,0,1.5-0.1c0.5-0.1,1-0.3,1.3-0.5c0.4-0.2,0.7-0.5,0.9-0.9
					c0.2-0.4,0.4-0.9,0.4-1.4c0-0.6-0.1-1-0.3-1.4c-0.2-0.4-0.5-0.7-0.8-0.9c-0.4-0.2-0.8-0.4-1.2-0.5c-0.5-0.1-1-0.2-1.5-0.2h-2.1
					V54.3z"/>
				<path class="st1" d="M351.2,48.6c0-0.9-0.2-1.5-0.6-2c-0.4-0.4-1-0.6-1.9-0.6c-0.5,0-1,0-1.5,0.1c-0.4,0.1-0.8,0.2-1.2,0.3
					c-0.1-0.1-0.1-0.3-0.2-0.5c0-0.2-0.1-0.4-0.1-0.6c0.4-0.1,0.8-0.2,1.3-0.3c0.5-0.1,1-0.1,1.6-0.1c1.3,0,2.3,0.3,2.9,0.9
					c0.6,0.6,1,1.5,1,2.7v6.8c-0.5,0.1-1,0.2-1.7,0.3c-0.7,0.1-1.3,0.1-1.9,0.1c-1.3,0-2.2-0.3-3-0.8c-0.7-0.5-1.1-1.3-1.1-2.4
					c0-0.5,0.1-1,0.3-1.4c0.2-0.4,0.5-0.8,0.9-1.1c0.4-0.3,0.8-0.5,1.3-0.7c0.5-0.1,1.1-0.2,1.7-0.2c0.5,0,0.9,0,1.3,0.1
					c0.3,0,0.6,0.1,0.9,0.1V48.6z M351.2,50.4c-0.2,0-0.5-0.1-0.9-0.1c-0.3,0-0.7-0.1-1-0.1c-1,0-1.8,0.2-2.4,0.6
					c-0.6,0.4-0.8,0.9-0.8,1.6c0,0.4,0.1,0.8,0.3,1.1c0.2,0.3,0.4,0.5,0.7,0.6c0.3,0.1,0.6,0.2,0.9,0.3c0.3,0,0.6,0.1,1,0.1
					c0.4,0,0.8,0,1.2-0.1c0.4,0,0.7-0.1,1.1-0.2V50.4z"/>
				<path class="st1" d="M355.2,45.1c0.1,0,0.2,0,0.3,0c0.1,0,0.2,0,0.3,0c0.1,0,0.2,0,0.3,0c0.1,0,0.2,0,0.3,0c0,0.2,0,0.5,0.1,0.9
					c0,0.3,0,0.6,0,0.9c0.3-0.5,0.6-0.9,1.1-1.3c0.5-0.3,1.1-0.5,1.9-0.5c0.1,0,0.1,0,0.2,0c0.1,0,0.2,0,0.3,0
					c0,0.2,0.1,0.4,0.1,0.6c0,0.2,0,0.4-0.1,0.6c-0.1,0-0.2,0-0.3,0c-0.1,0-0.1,0-0.2,0c-0.9,0-1.7,0.3-2.2,0.9
					c-0.6,0.6-0.8,1.5-0.8,2.9v5.3c-0.1,0-0.2,0-0.3,0c-0.1,0-0.3,0-0.3,0c-0.1,0-0.2,0-0.3,0c-0.1,0-0.3,0-0.3,0V45.1z"/>
				<path class="st1" d="M368.4,54.1c0.1,0.1,0.1,0.3,0.2,0.5c0.1,0.2,0.1,0.4,0.1,0.6c-0.3,0.1-0.7,0.2-1.2,0.3
					c-0.4,0.1-0.9,0.1-1.4,0.1c-1.7,0-3-0.5-3.9-1.4c-0.9-0.9-1.3-2.3-1.3-4c0-0.8,0.1-1.5,0.3-2.1c0.2-0.7,0.5-1.2,1-1.7
					c0.4-0.5,0.9-0.9,1.6-1.1c0.6-0.3,1.4-0.4,2.2-0.4c0.5,0,1,0,1.5,0.1c0.5,0.1,0.8,0.2,1.1,0.3c0,0.2,0,0.4-0.1,0.6
					c0,0.2-0.1,0.4-0.2,0.5c-0.3-0.1-0.6-0.2-1-0.2c-0.4-0.1-0.9-0.1-1.3-0.1c-0.6,0-1.1,0.1-1.6,0.3c-0.5,0.2-0.8,0.5-1.1,0.9
					c-0.3,0.4-0.5,0.8-0.7,1.3c-0.2,0.5-0.2,1.1-0.2,1.7c0,1.5,0.3,2.5,1,3.2c0.7,0.7,1.6,1,2.8,1c0.4,0,0.8,0,1.2-0.1
					C367.7,54.3,368.1,54.2,368.4,54.1z"/>
				<path class="st1" d="M371,50.5c0,1.4,0.3,2.4,1,3c0.6,0.6,1.6,1,2.9,1c0.5,0,1,0,1.4-0.1c0.4-0.1,0.9-0.2,1.3-0.4
					c0.1,0.1,0.1,0.3,0.2,0.5c0,0.2,0.1,0.4,0.1,0.6c-0.4,0.2-0.9,0.3-1.4,0.4c-0.5,0.1-1.1,0.1-1.7,0.1c-0.9,0-1.7-0.1-2.3-0.4
					c-0.6-0.3-1.2-0.6-1.6-1.1c-0.4-0.5-0.7-1-0.9-1.7c-0.2-0.7-0.3-1.4-0.3-2.2c0-0.8,0.1-1.5,0.3-2.1c0.2-0.7,0.5-1.2,0.8-1.7
					c0.4-0.5,0.8-0.9,1.4-1.2c0.6-0.3,1.3-0.4,2.1-0.4c0.7,0,1.3,0.1,1.8,0.3c0.5,0.2,1,0.6,1.3,1c0.4,0.4,0.6,0.9,0.8,1.5
					c0.2,0.6,0.3,1.2,0.3,1.9c0,0.1,0,0.3,0,0.5c0,0.2,0,0.4,0,0.5H371z M377.1,49.3c0-0.4-0.1-0.8-0.2-1.2
					c-0.1-0.4-0.3-0.8-0.5-1.1c-0.2-0.3-0.5-0.6-0.9-0.7c-0.4-0.2-0.8-0.3-1.3-0.3c-0.9,0-1.7,0.3-2.2,0.9c-0.5,0.6-0.8,1.4-1,2.5
					H377.1z"/>
				<path class="st1" d="M380.6,40.5c0.1,0,0.2,0,0.3,0c0.1,0,0.3,0,0.3,0c0.1,0,0.2,0,0.3,0c0.1,0,0.3,0,0.3,0V53
					c0,0.3,0,0.6,0.1,0.8c0.1,0.2,0.2,0.3,0.3,0.4c0.1,0.1,0.3,0.1,0.4,0.2c0.1,0,0.3,0,0.4,0c0.1,0,0.3,0,0.5,0
					c0.2,0,0.3,0,0.4-0.1c0.1,0.2,0.1,0.3,0.1,0.5c0,0.2,0,0.4,0.1,0.5c-0.2,0.1-0.4,0.1-0.6,0.1c-0.2,0-0.5,0-0.7,0
					c-0.3,0-0.6,0-0.9-0.1c-0.3-0.1-0.5-0.2-0.8-0.3c-0.2-0.2-0.4-0.4-0.5-0.7c-0.1-0.3-0.2-0.7-0.2-1.1V40.5z"/>
				<path class="st1" d="M389.5,55.7c-0.8,0-1.4-0.1-2-0.4c-0.6-0.3-1.1-0.7-1.4-1.1c-0.4-0.5-0.7-1.1-0.9-1.7
					c-0.2-0.7-0.3-1.4-0.3-2.1c0-0.8,0.1-1.5,0.3-2.1c0.2-0.7,0.5-1.2,0.9-1.7c0.4-0.5,0.9-0.9,1.4-1.1c0.6-0.3,1.3-0.4,2-0.4
					c0.8,0,1.4,0.1,2,0.4c0.6,0.3,1.1,0.7,1.4,1.1c0.4,0.5,0.7,1.1,0.9,1.7c0.2,0.7,0.3,1.4,0.3,2.1c0,0.8-0.1,1.5-0.3,2.1
					c-0.2,0.7-0.5,1.2-0.9,1.7c-0.4,0.5-0.9,0.9-1.4,1.1C390.9,55.5,390.2,55.7,389.5,55.7z M389.5,54.5c1.1,0,1.9-0.4,2.4-1.1
					c0.5-0.8,0.8-1.8,0.8-3.1c0-1.3-0.3-2.3-0.8-3.1c-0.5-0.8-1.3-1.1-2.4-1.1c-1.1,0-1.9,0.4-2.4,1.1c-0.5,0.8-0.8,1.8-0.8,3.1
					c0,1.3,0.3,2.3,0.8,3.1C387.6,54.1,388.4,54.5,389.5,54.5z"/>
				<path class="st1" d="M396.4,45.1c0.1,0,0.2,0,0.3,0c0.1,0,0.2,0,0.3,0c0.1,0,0.2,0,0.3,0c0.1,0,0.2,0,0.3,0c0,0.2,0,0.5,0.1,0.9
					c0,0.4,0,0.7,0,1c0.1-0.2,0.3-0.5,0.5-0.7c0.2-0.3,0.5-0.5,0.8-0.7c0.3-0.2,0.6-0.4,1-0.5c0.4-0.1,0.8-0.2,1.2-0.2
					c1.2,0,2.1,0.4,2.6,1.1c0.5,0.7,0.8,1.7,0.8,3v6.5c-0.1,0-0.2,0-0.3,0c-0.1,0-0.3,0-0.3,0c-0.1,0-0.2,0-0.3,0
					c-0.1,0-0.3,0-0.3,0v-6.1c0-1.1-0.2-2-0.5-2.5c-0.4-0.5-0.9-0.8-1.6-0.8c-0.5,0-0.9,0.1-1.3,0.3c-0.4,0.2-0.8,0.5-1.1,0.8
					c-0.3,0.4-0.5,0.8-0.7,1.3c-0.2,0.5-0.3,1.1-0.3,1.8v5.1c-0.1,0-0.2,0-0.3,0c-0.1,0-0.3,0-0.3,0c-0.1,0-0.2,0-0.3,0
					c-0.1,0-0.3,0-0.3,0V45.1z"/>
				<path class="st1" d="M412.9,48.6c0-0.9-0.2-1.5-0.6-2c-0.4-0.4-1-0.6-1.9-0.6c-0.5,0-1,0-1.5,0.1c-0.4,0.1-0.8,0.2-1.2,0.3
					c-0.1-0.1-0.1-0.3-0.2-0.5c0-0.2-0.1-0.4-0.1-0.6c0.4-0.1,0.8-0.2,1.3-0.3c0.5-0.1,1-0.1,1.6-0.1c1.3,0,2.3,0.3,2.9,0.9
					c0.6,0.6,1,1.5,1,2.7v6.8c-0.5,0.1-1,0.2-1.7,0.3c-0.7,0.1-1.3,0.1-1.9,0.1c-1.3,0-2.2-0.3-3-0.8c-0.7-0.5-1.1-1.3-1.1-2.4
					c0-0.5,0.1-1,0.3-1.4c0.2-0.4,0.5-0.8,0.9-1.1c0.4-0.3,0.8-0.5,1.3-0.7c0.5-0.1,1.1-0.2,1.7-0.2c0.5,0,0.9,0,1.3,0.1
					c0.4,0,0.6,0.1,0.9,0.1V48.6z M412.9,50.4c-0.2,0-0.5-0.1-0.9-0.1c-0.3,0-0.7-0.1-1-0.1c-1,0-1.8,0.2-2.4,0.6
					c-0.6,0.4-0.8,0.9-0.8,1.6c0,0.4,0.1,0.8,0.3,1.1c0.2,0.3,0.4,0.5,0.7,0.6c0.3,0.1,0.6,0.2,0.9,0.3c0.3,0,0.6,0.1,1,0.1
					c0.4,0,0.8,0,1.2-0.1c0.4,0,0.7-0.1,1.1-0.2V50.4z"/>
				<path class="st2" d="M337.1,58.9c0.3,0,0.6-0.1,0.8-0.1c0.3,0,0.5,0,0.9,0c0.3,0,0.5,0,0.8,0c0.3,0,0.5,0.1,0.9,0.1l4.6,14.6
					c-0.6,0.1-1.1,0.1-1.6,0.1c-0.5,0-1,0-1.5-0.1l-0.8-2.9h-4.8l-0.8,2.9c-0.5,0.1-1,0.1-1.4,0.1c-0.5,0-1,0-1.5-0.1L337.1,58.9z
					 M340.3,68.1l-1.7-6.1l-1.8,6.1H340.3z"/>
				<path class="st2" d="M352.9,71c0.2,0.3,0.3,0.6,0.4,0.9c0.1,0.4,0.2,0.8,0.2,1.3c-0.5,0.2-1,0.4-1.5,0.4c-0.5,0.1-1,0.1-1.5,0.1
					c-0.9,0-1.6-0.1-2.3-0.4c-0.6-0.3-1.2-0.7-1.6-1.1c-0.4-0.5-0.7-1.1-1-1.7c-0.2-0.7-0.3-1.4-0.3-2.2c0-0.8,0.1-1.5,0.3-2.1
					c0.2-0.7,0.5-1.2,1-1.7c0.4-0.5,1-0.9,1.6-1.2c0.6-0.3,1.4-0.4,2.2-0.4c0.3,0,0.6,0,0.8,0c0.2,0,0.5,0,0.7,0.1
					c0.2,0,0.5,0.1,0.7,0.2c0.2,0.1,0.5,0.2,0.8,0.3c0,0.3,0,0.7-0.1,1c-0.1,0.4-0.2,0.8-0.4,1.1c-0.4-0.1-0.8-0.2-1.1-0.3
					c-0.3,0-0.7-0.1-1-0.1c-0.8,0-1.5,0.3-1.9,0.8c-0.4,0.5-0.6,1.3-0.6,2.3c0,1.1,0.2,1.9,0.7,2.4c0.5,0.5,1.1,0.7,1.9,0.7
					c0.2,0,0.4,0,0.6,0c0.2,0,0.3,0,0.5-0.1c0.2,0,0.3-0.1,0.5-0.1C352.5,71.2,352.7,71.1,352.9,71z"/>
				<path class="st2" d="M355.5,65.2h-1.3l-0.1-0.4l3.8-4.8h0.5V63h2.5c0,0.2,0.1,0.4,0.1,0.5c0,0.2,0,0.3,0,0.5c0,0.2,0,0.4,0,0.5
					c0,0.2,0,0.4-0.1,0.6h-2.5v4.1c0,0.4,0,0.8,0.1,1c0.1,0.3,0.2,0.5,0.3,0.6c0.1,0.2,0.3,0.3,0.5,0.3c0.2,0.1,0.4,0.1,0.7,0.1
					c0.2,0,0.4,0,0.6-0.1c0.2,0,0.4-0.1,0.5-0.1c0.1,0.3,0.2,0.5,0.2,0.8c0,0.3,0.1,0.5,0.1,0.7c0,0.2,0,0.3,0,0.4
					c0,0.1,0,0.2,0,0.3c-0.6,0.1-1.3,0.2-1.9,0.2c-1.2,0-2.2-0.3-2.8-0.9c-0.6-0.6-1-1.5-1-2.8V65.2z"/>
				<path class="st2" d="M363.3,65.2h-1.4c0-0.2-0.1-0.4-0.1-0.6c0-0.2,0-0.4,0-0.6c0-0.4,0-0.7,0.1-1.1h4.2v10.5
					c-0.5,0.1-1,0.1-1.4,0.1c-0.4,0-0.9,0-1.4-0.1V65.2z M362.8,61.3c-0.1-0.5-0.1-0.9-0.1-1.4c0-0.4,0-0.9,0.1-1.4
					c0.2,0,0.5-0.1,0.7-0.1c0.3,0,0.5,0,0.7,0c0.2,0,0.5,0,0.8,0c0.3,0,0.5,0.1,0.8,0.1c0,0.2,0.1,0.5,0.1,0.7c0,0.2,0,0.4,0,0.7
					c0,0.2,0,0.4,0,0.7c0,0.2,0,0.5-0.1,0.7c-0.2,0-0.5,0.1-0.7,0.1c-0.3,0-0.5,0-0.7,0c-0.2,0-0.5,0-0.7,0
					C363.3,61.3,363.1,61.3,362.8,61.3z"/>
				<path class="st2" d="M367.1,63.1c0.3-0.1,0.6-0.1,0.9-0.1c0.3,0,0.5,0,0.7,0c0.3,0,0.5,0,0.8,0c0.3,0,0.5,0,0.8,0.1l2.3,7.8
					l2.3-7.8c0.2,0,0.5-0.1,0.7-0.1c0.3,0,0.5,0,0.8,0c0.2,0,0.4,0,0.7,0c0.3,0,0.6,0.1,0.9,0.1l-4,10.5c-0.3,0-0.5,0.1-0.8,0.1
					c-0.3,0-0.5,0-0.7,0c-0.2,0-0.4,0-0.7,0c-0.3,0-0.5,0-0.7-0.1L367.1,63.1z"/>
				<path class="st2" d="M384.1,66.6c0-0.3-0.1-0.6-0.2-0.8c-0.1-0.2-0.3-0.4-0.4-0.5c-0.2-0.1-0.4-0.2-0.7-0.2
					c-0.3,0-0.6-0.1-0.9-0.1c-0.7,0-1.5,0.1-2.3,0.4c-0.2-0.4-0.3-0.7-0.4-1c-0.1-0.3-0.1-0.7-0.1-1.1c0.6-0.2,1.2-0.4,1.8-0.4
					c0.6-0.1,1.1-0.1,1.7-0.1c1.4,0,2.5,0.3,3.3,1c0.8,0.7,1.2,1.8,1.2,3.2v6.1c-0.5,0.1-1,0.3-1.7,0.4c-0.7,0.1-1.4,0.2-2.3,0.2
					c-0.7,0-1.3-0.1-1.9-0.2c-0.6-0.1-1.1-0.3-1.5-0.6c-0.4-0.3-0.7-0.6-1-1.1c-0.2-0.4-0.3-1-0.3-1.6c0-0.6,0.1-1.2,0.4-1.6
					c0.3-0.4,0.6-0.8,1.1-1.1c0.4-0.3,0.9-0.5,1.5-0.6c0.5-0.1,1.1-0.2,1.6-0.2c0.4,0,0.8,0,1.3,0.1V66.6z M384.1,68.7
					c-0.2,0-0.3-0.1-0.5-0.1c-0.2,0-0.4,0-0.5,0c-0.7,0-1.2,0.1-1.6,0.4c-0.4,0.2-0.6,0.6-0.6,1.1c0,0.4,0.1,0.6,0.2,0.8
					c0.1,0.2,0.3,0.3,0.5,0.4c0.2,0.1,0.4,0.1,0.7,0.2c0.2,0,0.4,0,0.6,0c0.2,0,0.4,0,0.6-0.1c0.2,0,0.4-0.1,0.5-0.1V68.7z"/>
			</g>
			<g>
				<path class="st2" d="M314.5,66.1h-11.9l-1.9,6.8c2.4,1.3,5.2,2,8.2,2c2.7,0,5.3-0.6,7.6-1.7L314.5,66.1z"/>
				<path class="st2" d="M322.6,68.3c2.5-3.1,4-7,4-11.2c0-8.1-5.4-15-12.9-17.1L322.6,68.3z"/>
				<polygon class="st2" points="308.6,44.9 304.2,60 312.8,60 				"/>
				<path class="st2" d="M303.9,39.9c-7.5,2.1-13,9-13,17.2c0,4.3,1.5,8.2,4,11.3L303.9,39.9z"/>
			</g>
		</g>
	</g>
	<g>
		<path class="st1" d="M11.7,104.3h219.5l0.1,0c24.6,0,44.6-20,44.6-44.6c0-24.6-20-44.6-44.6-44.6H11.7V104.3z"/>
		<g>
			<path class="st3" d="M237.5,70.2c0,2-1.5,3.1-3.5,3.1c-1,0-2-0.7-2-1.7c0-1.1,1-1.7,2-1.8l3.5-0.3V70.2z M241.9,75.5v-2.4
				c0,0-0.2,0.1-0.4,0.1c-0.6,0-0.8-0.2-0.8-0.9v-5.1c0-0.9-0.1-1.9-0.4-2.8c-0.8-2.1-2.8-2.8-5.1-2.8c-3.1,0-5.5,1.4-5.7,4.5h3.2
				c0.1-1.3,1-2,2.5-2c1.9,0,2.3,0.9,2.3,2.2v0.8l-4,0.3c-2.6,0.2-4.6,1.7-4.6,4.3c0,2.2,1.7,4.3,5,4.3c1.9,0,3.5-0.9,4.2-2.1
				c0.1,1,0.9,1.9,2.3,1.9C241.1,75.9,241.4,75.8,241.9,75.5 M226.1,75.7v-9.1c0-2.8-1.7-4.9-4.6-4.9c-1.6,0-3.2,0.7-4,2.1l-0.2-1.8
				h-2.8v13.7h3.3v-5.6c0-1.2,0-2.6,0.5-3.7c0.4-1,1.2-1.7,2.4-1.7c1.7,0,2.3,1,2.3,2.6v8.4H226.1z M207.9,68.8c0,1.3-0.2,2.6-1,3.5
				c-0.4,0.5-1.2,0.9-2.1,0.9c-0.9,0-1.6-0.4-2.1-0.9c-0.8-0.9-1-2.2-1-3.5c0-1.3,0.2-2.6,1-3.5c0.4-0.5,1.2-0.9,2.1-0.9
				c0.9,0,1.6,0.4,2.1,0.9C207.7,66.3,207.9,67.6,207.9,68.8 M211.2,68.8c0-2.3-0.6-3.8-1.6-5.1c-0.9-1.2-2.7-2.1-4.8-2.1
				c-2.1,0-3.8,1-4.8,2.1c-1,1.3-1.6,2.7-1.6,5.1c0,2.3,0.6,3.8,1.6,5.1c1,1.2,2.7,2.1,4.8,2.1c2.1,0,3.8-1,4.8-2.1
				C210.7,72.6,211.2,71.2,211.2,68.8 M196.7,75.7v-2.8c-0.2,0-0.3,0-0.6,0c-1.1,0-1.3-0.5-1.3-1.3v-15h-3.3v15.5
				c0,2.6,1.5,3.7,3.7,3.7C195.9,75.9,196,75.8,196.7,75.7 M185.2,67.5h-5.9c0-0.9,0.2-1.5,0.7-2.1c0.5-0.6,1.3-1.1,2.3-1.1
				c0.9,0,1.6,0.3,2.1,0.8C184.9,65.7,185.2,66.4,185.2,67.5 M188.5,69c0.1-1.7-0.2-3.3-1.2-4.8c-1.1-1.7-3-2.5-5-2.5
				c-1.9,0-3.3,0.7-4.4,1.7c-1.3,1.3-2,3.3-2,5.5c0,2.2,0.7,4.2,2.1,5.5c1.1,1,2.4,1.7,4.3,1.7c1.7,0,3.5-0.6,4.6-1.9
				c0.5-0.6,1.1-1.7,1.2-2.5H185c-0.1,0.5-0.4,0.9-0.7,1.2c-0.5,0.5-1.1,0.7-2,0.7c-0.9,0-1.6-0.4-2-0.8c-0.7-0.6-1-1.6-1-2.7h9.2
				C188.5,69.6,188.5,69,188.5,69 M174,70.9h-3.2c0,0.5-0.2,0.9-0.4,1.3c-0.4,0.6-1.1,1-2.1,1c-0.9,0-1.6-0.4-2-0.9
				c-0.8-0.9-0.9-2.2-0.9-3.5c0-1.3,0.1-2.6,0.9-3.5c0.4-0.5,1.1-0.8,2-0.8c1,0,1.7,0.4,2.1,1c0.2,0.3,0.4,0.8,0.4,1.3h3.2
				c0-1.1-0.4-2.2-1.1-3c-0.9-1.2-2.6-2.2-4.7-2.2c-2.1,0-3.8,1-4.8,2.2c-1,1.3-1.5,3-1.5,5c0,2,0.5,3.7,1.5,5
				c0.9,1.2,2.7,2.2,4.8,2.2c2.1,0,3.7-1,4.7-2.2C173.5,73,173.9,71.9,174,70.9 M160.9,65.1v-3.2c-0.3-0.1-0.7-0.1-1-0.1
				c-1.6,0-3.2,0.7-3.9,2.2l-0.3-2.1H153v13.7h3.3v-6.9c0-2.2,1.2-3.9,3.5-3.9C160.2,64.9,160.6,65,160.9,65.1 M145.7,70.2
				c0,2-1.5,3.1-3.5,3.1c-1,0-1.9-0.7-1.9-1.7c0-1.1,1-1.7,2-1.8l3.5-0.3V70.2z M150.1,75.5v-2.4c0,0-0.2,0.1-0.4,0.1
				c-0.6,0-0.8-0.2-0.8-0.9v-5.1c0-0.9-0.1-1.9-0.4-2.8c-0.8-2.1-2.8-2.8-5.1-2.8c-3.1,0-5.5,1.4-5.7,4.5h3.2c0.1-1.3,1-2,2.5-2
				c1.9,0,2.3,0.9,2.3,2.2v0.8l-4,0.3c-2.6,0.2-4.6,1.7-4.6,4.3c0,2.2,1.7,4.3,5,4.3c2,0,3.5-0.9,4.2-2.1c0.1,1,0.9,1.9,2.3,1.9
				C149.2,75.9,149.5,75.8,150.1,75.5 M131.6,70.2c0,1.9-1.7,2.5-3.3,2.5h-4.2v-5.2h4.3C130.2,67.5,131.6,68.2,131.6,70.2
				 M131.2,62.3c0,1.8-1.3,2.3-2.8,2.3h-4.3v-4.7h4.2C129.9,59.9,131.2,60.5,131.2,62.3 M135.1,70.3c0-1.7-0.9-3.4-2.7-4.2
				c1.6-0.7,2.3-2.4,2.3-4c0-1.6-0.8-3.2-2.2-4.1c-1.3-0.8-2.8-1-4.3-1h-7.4v18.7h7.4c1.8,0,3.5-0.2,5-1.3
				C134.5,73.4,135.1,71.9,135.1,70.3"/>
			<path class="st3" d="M239.4,43.9h-4.3c0-0.6,0.2-1.1,0.5-1.5c0.3-0.5,0.9-0.8,1.6-0.8c0.7,0,1.2,0.2,1.5,0.6
				C239.1,42.6,239.3,43.1,239.4,43.9 M241.7,44.9c0-1.2-0.1-2.3-0.9-3.4c-0.8-1.2-2.1-1.8-3.6-1.8c-1.3,0-2.4,0.5-3.1,1.3
				c-0.9,1-1.4,2.4-1.4,3.9c0,1.6,0.5,3,1.5,3.9c0.8,0.7,1.8,1.2,3.1,1.2c1.2,0,2.5-0.4,3.3-1.4c0.4-0.4,0.8-1.2,0.8-1.8h-2.3
				c-0.1,0.4-0.3,0.6-0.5,0.8c-0.3,0.3-0.8,0.5-1.4,0.5c-0.6,0-1.1-0.3-1.5-0.6c-0.5-0.5-0.7-1.2-0.7-1.9h6.6
				C241.7,45.4,241.7,44.9,241.7,44.9 M229.2,44.8c0,1.4-0.4,3.2-2.2,3.2c-0.7,0-1.3-0.3-1.6-0.8c-0.5-0.6-0.6-1.5-0.6-2.4
				c0-0.9,0.1-1.7,0.6-2.4c0.3-0.4,0.8-0.8,1.6-0.8C228.8,41.7,229.2,43.4,229.2,44.8 M231.4,49.8V36.1H229v4.5
				c-0.4-0.5-1.3-0.9-2.6-0.9c-1,0-1.8,0.3-2.4,0.8c-1.2,1-1.8,2.5-1.8,4.4c0,1.9,0.6,3.3,1.7,4.3c0.6,0.5,1.4,0.8,2.4,0.8
				c1.1,0,2.2-0.4,2.8-1.3l0.1,1.1H231.4z M217.3,49.6v-2c-0.6,0.1-1,0.1-1.5,0.1c-0.8,0-1.1-0.3-1.1-1.1v-4.8h2.5v-1.9h-2.5v-3.1
				l-2.4,0.6v2.5h-1.8v1.9h1.8v5c0,1.9,1,3,3,3C216,49.9,216.7,49.8,217.3,49.6 M209.7,49.8v-6.6c0-2-1.2-3.5-3.3-3.5
				c-1.1,0-2.3,0.5-2.9,1.5l-0.2-1.3h-2v9.8h2.4v-4c0-0.8,0-1.8,0.3-2.6c0.3-0.7,0.9-1.3,1.7-1.3c1.2,0,1.6,0.7,1.6,1.9v6H209.7z
				 M197.6,43.9h-4.3c0-0.6,0.2-1.1,0.5-1.5c0.3-0.5,0.9-0.8,1.6-0.8c0.7,0,1.2,0.2,1.5,0.6C197.3,42.6,197.5,43.1,197.6,43.9
				 M199.9,44.9c0-1.2-0.1-2.3-0.8-3.4c-0.8-1.2-2.1-1.8-3.6-1.8c-1.3,0-2.4,0.5-3.1,1.3c-0.9,1-1.4,2.4-1.4,3.9
				c0,1.6,0.5,3,1.5,3.9c0.8,0.7,1.8,1.2,3.1,1.2c1.2,0,2.5-0.4,3.3-1.4c0.4-0.4,0.8-1.2,0.8-1.8h-2.3c-0.1,0.4-0.3,0.6-0.5,0.8
				c-0.3,0.3-0.8,0.5-1.4,0.5c-0.6,0-1.1-0.3-1.5-0.6c-0.5-0.5-0.7-1.2-0.7-1.9h6.6C199.9,45.4,199.9,44.9,199.9,44.9 M189.6,49.8
				v-6.6c0-2-1.1-3.4-3.2-3.4c-1.3,0-2.4,0.6-3,1.6c-0.5-1-1.4-1.6-2.8-1.6c-1.3,0-2.3,0.6-2.8,1.6l-0.2-1.3h-2v9.8h2.3v-5.4
				c0-1.2,0.6-2.6,1.9-2.6c1.2,0,1.5,0.7,1.5,1.9v6.1h2.3v-5.4c0-1.2,0.6-2.6,1.9-2.6c1.2,0,1.5,0.7,1.5,1.9v6.1H189.6z M171.2,45.8
				c0,1.5-1,2.3-2.5,2.3c-0.7,0-1.4-0.5-1.4-1.2c0-0.8,0.7-1.2,1.4-1.3l2.5-0.2V45.8z M174.3,49.6v-1.7c0,0-0.2,0-0.3,0
				c-0.4,0-0.5-0.2-0.5-0.6v-3.7c0-0.7,0-1.4-0.3-2c-0.6-1.5-2-2-3.7-2c-2.2,0-3.9,1-4.1,3.2h2.3c0.1-0.9,0.7-1.4,1.8-1.4
				c1.3,0,1.7,0.6,1.7,1.6v0.6l-2.9,0.2c-1.9,0.1-3.3,1.2-3.3,3.1c0,1.6,1.2,3.1,3.6,3.1c1.4,0,2.5-0.7,3-1.5
				c0.1,0.7,0.6,1.4,1.7,1.4C173.7,49.9,173.9,49.8,174.3,49.6 M164.5,49.6v-2c-0.6,0.1-1,0.1-1.5,0.1c-0.8,0-1.1-0.3-1.1-1.1v-4.8
				h2.5v-1.9h-2.5v-3.1l-2.4,0.6v2.5h-1.8v1.9h1.8v5c0,1.9,1,3,3,3C163.2,49.9,163.8,49.8,164.5,49.6 M156.9,49.8v-6.6
				c0-2-1.2-3.5-3.3-3.5c-1.1,0-2.3,0.5-2.9,1.5l-0.2-1.3h-2v9.8h2.4v-4c0-0.8,0-1.8,0.3-2.6c0.3-0.7,0.9-1.3,1.7-1.3
				c1.2,0,1.6,0.7,1.6,1.9v6H156.9z M146.3,49.8v-9.8H144v5.2c0,0.8-0.2,1.7-0.7,2.2c-0.3,0.3-0.7,0.5-1.2,0.5
				c-1.2,0-1.7-0.7-1.7-1.9v-6H138v6.6c0,2.1,1.3,3.5,3.4,3.5c1.2,0,2.3-0.6,2.8-1.5l0.2,1.3H146.3z M135.9,51.1V39.9h-2.4v10.7
				c0,0.7-0.4,1.1-1.1,1.1c-0.4,0-0.4,0-1.1-0.1v2c0.4,0.1,0.8,0.2,1.1,0.2c0.3,0,0.6,0,0.8,0C134.9,53.9,135.9,52.8,135.9,51.1
				 M136,36.1h-2.5v2.4h2.5V36.1z M128.3,45h-3.8l1.9-5.7L128.3,45z M132.5,49.8l-4.7-13.4h-2.7l-4.7,13.4h2.5l0.9-2.6h5.3l0.9,2.6
				H132.5z"/>
		</g>
	</g>
	<g>
		<path class="st4" d="M11.7,104.3h46.9h0.1c23.7,0,42.9-20,42.9-44.6S82.4,15.1,58.7,15.1h-47V104.3z"/>
		<g>
			<path class="st3" d="M57.7,86.5l23-23l-23-23l-23,23L57.7,86.5z M81,63.6c0,0-2.6,4.6-10.5,12.6c-8.1,8-12.8,10.8-12.8,10.8
				s-4.6-2.6-12.6-10.5c-8.1-8.1-10.8-12.8-10.8-12.8S37,58.9,44.9,51c8-8.1,12.8-10.8,12.8-10.8s4.6,2.6,12.6,10.5
				C78.3,58.8,81,63.6,81,63.6 M57.7,86.5l23-23l-23-23l-23,23L57.7,86.5z M81,63.6c0,0-2.6,4.6-10.5,12.6
				c-8.1,8-12.8,10.8-12.8,10.8s-4.6-2.6-12.6-10.5c-8.1-8.1-10.8-12.8-10.8-12.8S37,58.9,44.9,51c8-8.1,12.8-10.8,12.8-10.8
				s4.6,2.6,12.6,10.5C78.3,58.8,81,63.6,81,63.6 M78.8,63.2h-2.1v-2.1L78.8,63.2z M74.3,58.8v4.4H72v-6.8L74.3,58.8z M69.7,54.1
				v9.1h-2.3V51.8L69.7,54.1z M65,49.5v13.8h-2.3V47.1L65,49.5z M60.4,44.8v18.4H58V42.5L60.4,44.8z M36.6,63.9h2.1V66L36.6,63.9z
				 M41.1,68.3v-4.4h2.3v6.8L41.1,68.3z M45.7,73v-9.1h2.3v11.4L45.7,73z M50.4,77.7V63.9h2.3V80L50.4,77.7z M55,82.3V63.9h2.3v20.7
				L55,82.3z M58,63.9h4.7v5.8H58V63.9z M62.7,80L58,84.6V72h4.7V80z M52.7,47.1l4.7-4.6v12.6h-4.7V47.1z M57.4,63.2h-4.7v-5.8h4.7
				V63.2z M82.2,63.6c0-0.5,0.4-0.9,0.9-0.9c0.5,0,1,0.4,1,0.9c0,0.5-0.4,0.9-1,0.9C82.6,64.5,82.2,64.1,82.2,63.6 M31.3,63.6
				c0-0.5,0.4-0.9,0.9-0.9c0.5,0,1,0.4,1,0.9c0,0.5-0.4,0.9-1,0.9C31.7,64.5,31.3,64.1,31.3,63.6 M56.8,89c0-0.5,0.4-0.9,0.9-0.9
				c0.5,0,0.9,0.4,0.9,0.9c0,0.5-0.4,0.9-0.9,0.9C57.2,89.9,56.8,89.5,56.8,89 M51.9,30.1C51.6,30,51.3,30,51,30
				c-1.3,0-2.3,0.8-2.3,1.8c0,0.5,0.2,0.9,0.6,1.2l-1,1c-0.6-0.6-1-1.4-1-2.2c0-1.8,1.7-3.2,3.8-3.2c0.5,0,1.1,0.1,1.5,0.3
				c0.7-0.8,1.8-1.3,3.1-1.3c0.8,0,1.5,0.2,2.1,0.5c0.6-0.3,1.3-0.5,2.1-0.5c1.3,0,2.4,0.5,3.1,1.3c0.5-0.2,1-0.3,1.6-0.3
				c2.1,0,3.8,1.4,3.8,3.2c0,0.9-0.4,1.6-1,2.2l-1-1c0.4-0.3,0.6-0.7,0.6-1.2c0-1-1.1-1.8-2.3-1.8c-0.3,0-0.6,0-0.9,0.1
				c0,0.2,0.1,0.4,0.1,0.6c0,0.6-0.2,1.2-0.6,1.7L62,31.4c0.1-0.2,0.2-0.4,0.2-0.7c0-1-1-1.8-2.3-1.8c-0.5,0-1,0.1-1.3,0.3v2.1H57
				v-2.1c-0.4-0.2-0.9-0.4-1.4-0.4c-1.3,0-2.3,0.8-2.3,1.8c0,0.2,0.1,0.5,0.2,0.7l-1.1,1.1c-0.4-0.5-0.6-1.1-0.6-1.7
				C51.8,30.5,51.8,30.3,51.9,30.1 M50.5,37.8l0.8,1.2c1.8-0.9,4-1.4,6.3-1.4c2.3,0,4.5,0.6,6.3,1.4l0.8-1.2c-2.1-1-4.5-1.6-7.1-1.6
				C55.1,36.3,52.7,36.8,50.5,37.8 M56.7,25.5c0-0.6,0.4-1,1-1c0.5,0,1,0.4,1,1c0,0.5-0.5,1-1,1C57.2,26.5,56.7,26.1,56.7,25.5
				 M50.6,36.6c-0.4,0-0.7-0.3-0.9-0.7c0.3-0.3,0.6-0.5,1-0.5c0.4,0,0.7,0.3,0.9,0.7C51.3,36.5,50.9,36.7,50.6,36.6 M49.9,34.8
				c-0.1-0.3-0.5-0.5-0.9-0.6c-0.2,0.4-0.3,0.8-0.2,1.1c0.2,0.3,0.5,0.5,0.9,0.6C49.9,35.6,50,35.2,49.9,34.8 M54.3,35.6
				c-0.4-0.1-0.6-0.4-0.7-0.9c0.3-0.3,0.7-0.4,1.1-0.3c0.3,0.1,0.6,0.4,0.7,0.9C55,35.6,54.6,35.7,54.3,35.6 M53.3,35.8
				c0.3-0.3,0.4-0.6,0.3-1.1c-0.4-0.1-0.8-0.1-1.1,0.2c-0.3,0.3-0.4,0.7-0.3,1.1C52.6,36.1,53,36,53.3,35.8 M54,33.7
				c-0.1-0.4-0.4-0.6-0.8-0.8c-0.3,0.3-0.5,0.7-0.4,1c0.1,0.4,0.4,0.6,0.8,0.8C53.9,34.4,54.1,34,54,33.7 M64.8,36.6
				c0.4,0,0.7-0.3,0.9-0.7c-0.3-0.3-0.6-0.5-1-0.5c-0.4,0-0.7,0.3-0.8,0.7C64.1,36.5,64.4,36.7,64.8,36.6 M65.5,34.8
				c0.2-0.3,0.5-0.5,0.9-0.6c0.3,0.4,0.3,0.8,0.2,1.1c-0.2,0.3-0.5,0.5-0.9,0.6C65.4,35.6,65.3,35.2,65.5,34.8 M61.1,35.6
				c0.4-0.1,0.6-0.4,0.7-0.9c-0.3-0.3-0.7-0.4-1.1-0.3c-0.4,0.1-0.6,0.4-0.7,0.9C60.3,35.6,60.7,35.7,61.1,35.6 M62.1,35.8
				c-0.3-0.3-0.4-0.6-0.3-1.1c0.4-0.1,0.8-0.1,1.1,0.2c0.3,0.3,0.4,0.7,0.3,1.1C62.7,36.1,62.3,36,62.1,35.8 M61.4,33.7
				c0.1-0.4,0.4-0.6,0.8-0.8c0.3,0.3,0.5,0.7,0.4,1c-0.1,0.4-0.4,0.6-0.8,0.8C61.5,34.4,61.3,34,61.4,33.7 M57.2,35.3
				c0.3-0.2,0.5-0.6,0.5-1c-0.4-0.2-0.8-0.2-1.1-0.1c-0.3,0.2-0.5,0.5-0.5,1C56.5,35.4,56.9,35.4,57.2,35.3 M58.2,35.3
				c-0.3-0.2-0.5-0.6-0.5-1c0.4-0.2,0.8-0.2,1.1-0.1c0.3,0.2,0.5,0.5,0.5,1C59,35.4,58.5,35.4,58.2,35.3 M57.1,33.3
				c0-0.4,0.2-0.7,0.6-0.9c0.4,0.2,0.6,0.6,0.6,0.9c0,0.4-0.2,0.7-0.6,0.9C57.4,34,57.1,33.7,57.1,33.3"/>
			<polygon class="st3" points="65,77.6 65,77.6 65,72 70.7,72 			"/>
			<polygon class="st3" points="44.8,55.1 50.4,49.5 50.4,55.1 			"/>
			<polygon class="st3" points="65,63.9 65,66.8 65,69.7 69,69.7 73,69.7 78.8,63.9 			"/>
			<polygon class="st3" points="42.4,57.4 36.6,63.2 50.4,63.2 50.4,57.4 			"/>
		</g>
	</g>
</g>
</svg>
